<svg xmlns="http://www.w3.org/2000/svg" width="18.814" height="13.624" viewBox="0 0 18.814 13.624">
  <g id="credit-card" transform="translate(0 -8)">
    <path id="XMLID_128_" d="M17.77,21.624H1.044A1.043,1.043,0,0,1,0,20.58V9.044A1.043,1.043,0,0,1,1.044,8H17.77a1.043,1.043,0,0,1,1.044,1.044V20.58a1.043,1.043,0,0,1-1.044,1.044" transform="translate(0)" fill="#ccb375"/>
    <path id="XMLID_127_" d="M8.244,36H5.324a.324.324,0,1,0,0,.649H8.244a.324.324,0,1,0,0-.649" transform="translate(-3.378 -18.917)" fill="#7a693c"/>
    <path id="XMLID_126_" d="M21.568,36.324A.324.324,0,0,0,21.244,36H18.324a.324.324,0,1,0,0,.649h2.919a.324.324,0,0,0,.324-.324" transform="translate(-12.161 -18.917)" fill="#7a693c"/>
    <path id="XMLID_125_" d="M5.649,41H5.324a.324.324,0,1,0,0,.649h.324a.324.324,0,1,0,0-.649" transform="translate(-3.378 -22.296)" fill="#7a693c"/>
    <path id="XMLID_124_" d="M10.973,41h-.649a.324.324,0,1,0,0,.649h.649a.324.324,0,1,0,0-.649" transform="translate(-6.756 -22.296)" fill="#7a693c"/>
    <path id="XMLID_123_" d="M16.649,41h-.324a.324.324,0,1,0,0,.649h.324a.324.324,0,1,0,0-.649" transform="translate(-10.81 -22.296)" fill="#7a693c"/>
    <path id="XMLID_122_" d="M21.973,41h-.649a.324.324,0,1,0,0,.649h.649a.324.324,0,1,0,0-.649" transform="translate(-14.188 -22.296)" fill="#7a693c"/>
    <path id="XMLID_121_" d="M27.094,41.1a.324.324,0,1,0,.461,0,.34.34,0,0,0-.461,0" transform="translate(-18.242 -22.304)" fill="#7a693c"/>
    <path id="XMLID_120_" d="M37.893,34.946A1.946,1.946,0,1,1,35.946,33a1.946,1.946,0,0,1,1.946,1.946" transform="translate(-22.971 -16.891)" fill="#e74c3d"/>
    <path id="XMLID_119_" d="M44.893,34.946A1.946,1.946,0,1,1,42.946,33a1.946,1.946,0,0,1,1.946,1.946" transform="translate(-27.7 -16.891)" fill="#f0c41b"/>
    <path id="XMLID_118_" d="M10.783,19.893H6.407A.407.407,0,0,1,6,19.485V16.407A.407.407,0,0,1,6.407,16h4.376a.407.407,0,0,1,.407.407v3.078a.407.407,0,0,1-.407.407" transform="translate(-4.054 -5.405)" fill="#f0c41b"/>
    <path id="XMLID_115_" d="M10.107,19.541H5.731A.732.732,0,0,1,5,18.81V15.731A.732.732,0,0,1,5.731,15h4.376a.732.732,0,0,1,.731.731V18.81a.732.732,0,0,1-.731.731M5.731,15.649a.082.082,0,0,0-.083.083V18.81a.082.082,0,0,0,.083.083h4.376a.083.083,0,0,0,.083-.083V15.731a.083.083,0,0,0-.083-.083Z" transform="translate(-3.378 -4.729)" fill="#f3d55c"/>
    <path id="XMLID_114_" d="M15.244,16.407A.407.407,0,0,0,14.837,16h-2.43a.407.407,0,0,0-.407.407v3.078a.407.407,0,0,0,.407.407h.483a.407.407,0,0,0,.407-.407V17.7A.407.407,0,0,1,13.7,17.3h1.132a.407.407,0,0,0,.407-.407Z" transform="translate(-8.107 -5.405)" fill="#f0c41b"/>
    <path id="XMLID_111_" d="M12.215,19.541h-.483A.732.732,0,0,1,11,18.81V15.731A.732.732,0,0,1,11.731,15h2.43a.732.732,0,0,1,.731.731v.483a.732.732,0,0,1-.731.731H13.029a.082.082,0,0,0-.083.083V18.81a.732.732,0,0,1-.731.731m-.483-3.893a.082.082,0,0,0-.083.083V18.81a.082.082,0,0,0,.083.083h.483a.083.083,0,0,0,.083-.083V17.029a.732.732,0,0,1,.731-.731h1.132a.083.083,0,0,0,.083-.083v-.483a.083.083,0,0,0-.083-.083Z" transform="translate(-7.432 -4.729)" fill="#f3d55c"/>
    <line id="XMLID_110_" x2="1.946" transform="translate(5.19 13.19)" fill="#f0c41b"/>
    <path id="XMLID_109_" d="M17.271,23.649H15.324a.324.324,0,1,1,0-.649h1.946a.324.324,0,1,1,0,.649" transform="translate(-10.134 -10.134)" fill="#f3d55c"/>
    <line id="XMLID_108_" x1="1.946" transform="translate(1.946 11.893)" fill="#f0c41b"/>
    <path id="XMLID_107_" d="M7.271,19.649H5.324a.324.324,0,1,1,0-.649H7.271a.324.324,0,1,1,0,.649" transform="translate(-3.378 -7.432)" fill="#f3d55c"/>
    <line id="XMLID_106_" x1="1.946" transform="translate(1.946 13.19)" fill="#f0c41b"/>
    <path id="XMLID_105_" d="M7.271,23.649H5.324a.324.324,0,1,1,0-.649H7.271a.324.324,0,0,1,0,.649" transform="translate(-3.378 -10.134)" fill="#f3d55c"/>
  </g>
</svg>
