<svg id="Grupo_508" data-name="Grupo 508" xmlns="http://www.w3.org/2000/svg" width="13.669" height="19.012" viewBox="0 0 13.669 19.012">
  <g id="Grupo_507" data-name="Grupo 507">
    <path id="Trazado_1674" data-name="Trazado 1674" d="M161.624,115.412a3.01,3.01,0,0,0,1.492-3.111c-.255-1.925-2.55-2.652-4.361-2.805V106.6H156.97v2.869h-1.2V106.6h-1.785v2.869h-3.6v1.849h1.339c.6,0,.893.179.893.663v7.944c0,.663-.332.867-.689.867h-1.364v1.887h3.468v2.933h1.8V122.68h1.2v2.933h1.747V122.68h.383c3.672,0,4.9-1.8,4.9-4.246A3.175,3.175,0,0,0,161.624,115.412Zm-5.853-3.978h1.275c.893,0,2.652.153,2.652,1.607a1.8,1.8,0,0,1-1.568,1.9h-2.359S155.771,111.434,155.771,111.434Zm1.976,9.181V120.6h-1.976v-3.825h2.3c.536,0,2.55.179,2.55,1.607S159.66,120.614,157.747,120.614Z" transform="translate(-150.39 -106.601)"/>
  </g>
</svg>
