<svg xmlns="http://www.w3.org/2000/svg" width="304.117" height="209.28" viewBox="0 0 304.117 209.28">
  <g id="Grupo_542" data-name="Grupo 542" transform="translate(-45 -100)">
    <rect id="Rectángulo_285" data-name="Rectángulo 285" width="22.653" height="8.495" rx="4.247" transform="translate(138.444 121.826)" fill="#fff" opacity="0.1"/>
    <rect id="Rectángulo_286" data-name="Rectángulo 286" width="22.653" height="8.495" rx="4.247" transform="translate(205.837 114.181)" fill="#fff" opacity="0.1"/>
    <rect id="Rectángulo_287" data-name="Rectángulo 287" width="22.653" height="8.495" rx="4.247" transform="translate(193.378 200.545)" fill="#fff" opacity="0.1"/>
    <rect id="Rectángulo_288" data-name="Rectángulo 288" width="22.653" height="8.495" rx="4.247" transform="translate(203.571 209.89)" fill="#fff" opacity="0.1"/>
    <rect id="Rectángulo_289" data-name="Rectángulo 289" width="22.653" height="8.495" rx="4.247" transform="translate(264.168 205.642)" fill="#fff" opacity="0.1"/>
    <rect id="Rectángulo_290" data-name="Rectángulo 290" width="22.653" height="8.495" rx="4.247" transform="translate(79.829 212.438)" fill="#fff" opacity="0.1"/>
    <rect id="Rectángulo_291" data-name="Rectángulo 291" width="22.653" height="8.495" rx="4.247" transform="translate(186.298 219.234)" fill="#fff" opacity="0.1"/>
    <path id="Trazado_1846" data-name="Trazado 1846" d="M531.648,132.038,521.267,101.9l-3.732.566-3.341.428c.085-1.133.232-5.2-1.841-7.331a5.57,5.57,0,0,0-1.75-2.495c-4.967-4.553-6,4.76-6,4.76s-1.133,1.965-2.693,4.712l-.818-.156-.232,2.027c-3.455,6.108-8.045,14.373-8.045,15.149a10.236,10.236,0,0,1-.62,2.9s-3.517,5.794-4.76,8.693a13.9,13.9,0,0,1-3.115,4.553s-.3.229-.793.566a7.081,7.081,0,0,1,.283-1.617c.453-1.481,1.506-2.75,1.787-4.273a4.989,4.989,0,0,0,.074-1.107c.065-1.787-.8-3.545-1.167-5.332-.422-2.07-.2-4.349-1.3-6.147a6.345,6.345,0,0,0-3.922-2.622,30.122,30.122,0,0,0-4.3-.385c-1.331-.142-2.6-.731-3.933-.949a5.077,5.077,0,0,0-2.158,0c-2.251.62-2.956,3.457-4.695,5.018-.626.566-1.393.957-1.96,1.577a4.74,4.74,0,0,0-1.068,3.4,7.241,7.241,0,0,0,.074,1.237c.215,1.481.787,2.883,1.133,4.335a15.009,15.009,0,0,1,.422,3.282c0,.249,0,.5-.023.745a2.614,2.614,0,0,1-.382,1.416,4,4,0,0,1-1.294.92,10.038,10.038,0,0,1-3.262-4.627s-.076.1-.207.283v-.283s-2.832-4.157-3.262-7.552l.985.1,2.265-31.87-5.785-.849a13.2,13.2,0,0,0-1.764-5.774c.971-1.914,1.461-4.505-2.8-4.763-4.984-.3-4.678,3.579-4.148,5.7a14.286,14.286,0,0,0-.283,3.525l-5.1-.742-.028.413H436.5L432.79,121.85l3.16-.159,11.581,1.206c.926,8.418,2.381,18.822,4.109,21.274a2.094,2.094,0,0,0,.19.235v14.9s-.207,19.255-3.726,22.35a18.405,18.405,0,0,1,6.734-1.056q-.059.191-.119.408a36.133,36.133,0,0,0-1.073,5.8q-.074.648-.133,1.354a73.017,73.017,0,0,0,.178,12.949c1.45,15.313,3.726,26.283,3.726,26.283l.634,8.9s-.62,15.107,1.034,20.073a7.5,7.5,0,0,0,2.118,1.373c.014.142.031.283.045.433s.037.382.057.58c-.742.337-2.127,1.673-2.427,6.923,0,0,.413,3.933-.62,5.794s-.413,7.243,2.69,7.863a16.585,16.585,0,0,0,6,0s1.45,0,.413-5.173l-.181-1.325c-.023-2.563.085-5.306.595-6.125a2.95,2.95,0,0,0-.413-3.31s-.1.057-.269.133a24.48,24.48,0,0,1-.49-5.525,3.953,3.953,0,0,1,.043-.439,8.717,8.717,0,0,0,1.753-1.209V236.707s-.207-30.214,2.07-30.837c0,0,1.034,10.967.62,16.35a51.365,51.365,0,0,0,.62,11.176l.413,21.937s.4.19,1.036.413l-.042.4c-.252,2.438-.657,6.119-1.025,8.373a1.665,1.665,0,0,0-1.005,1.161c-.62,2.07-.207,7.243-1.45,8.693-.733.849-1.611,2.58-1.181,3.8-.269,1.073-.15,2.75,3.044,3.027,4.76.413,6.83-2.07,6.83-2.07a3.645,3.645,0,0,0,0-2.9c-.62-1.863.207-5.173.207-5.173s.445-2.809-.283-3.177c-.062-.334-.119-.547-.119-.547a2.492,2.492,0,0,0-.654-1.722,35.8,35.8,0,0,1,.832-8.812c.045-.15.091-.283.139-.439a5.589,5.589,0,0,0,1.75-.614s-.207-4.76,1.243-8.07.62-16.557.62-16.557a15.6,15.6,0,0,1,.255-6.3,61.823,61.823,0,0,0,2.248-9.571l1.22-8.549a34.981,34.981,0,0,0-1.019-21.087q-.259-.663-.566-1.325c-.351-.767-.742-1.538-1.178-2.3-.068-.119-.142-.241-.212-.36.445-.11.7-.176.7-.176s-5.587-13.025-2.07-19.66a8.624,8.624,0,0,0,2.265-4.16c.351-2.88.733-5.757,1.362-8.588l.11-.5s.017-.1.045-.269c.079-.051.156-.1.232-.161,5.963-4.355,11.106-22.54,11.106-22.54l1.657-3.115L499,120.8l-1.614,14.082L510.012,138l8.07-.62-.023-1.736,6.15-.479ZM451.626,90.98l-2.243-.328c-.394-2.025-.66-3.353-.66-3.353a12.309,12.309,0,0,0,1.243-1.86,12.894,12.894,0,0,1,1.659,5.53Zm-8.376-4.347c.156.532.3.875.3.875l.283,2.336-.765-.11a15.344,15.344,0,0,1,.187-3.112Zm70.734,16.313-3.036.391a11.381,11.381,0,0,0,.648-5.185,2.6,2.6,0,0,0,.832-2.166c1.8,2.155,1.634,5.961,1.555,6.952Zm-5.04-3.231a7.52,7.52,0,0,0,2.472-1.39,11.5,11.5,0,0,1-.7,5.04l-2.832.362-.782-.15Z" transform="translate(-283.079 19.579)" fill="#f1c40e" opacity="0"/>
    <path id="Trazado_1847" data-name="Trazado 1847" d="M676.57,108.646l-7.388,3.084L660.6,81.8l2.013-2.39,3.69-.572Z" transform="translate(-428.542 43.507)" fill="#fff"/>
    <path id="Trazado_1848" data-name="Trazado 1848" d="M676.57,108.646l-7.388,3.084L660.6,81.8l2.013-2.39,3.69-.572Z" transform="translate(-428.542 43.507)" fill="#9b59b6" opacity="0.86"/>
    <path id="Trazado_1849" data-name="Trazado 1849" d="M635.252,80.86,622.43,82.505,629,114.174l12.819-1Z" transform="translate(-401.181 42.059)" fill="#fff"/>
    <path id="Trazado_1850" data-name="Trazado 1850" d="M635.252,80.86,622.43,82.505,629,114.174l12.819-1Z" transform="translate(-401.181 42.059)" fill="#9b59b6" opacity="0.57"/>
    <path id="Trazado_1851" data-name="Trazado 1851" d="M708.7,141.8l-.2-.025c0-.076.849-7.552-3.843-8.495l.04-.2C709.583,134.063,708.713,141.725,708.7,141.8Z" transform="translate(-477.958 -18.169)" fill="#fff"/>
    <rect id="Rectángulo_292" data-name="Rectángulo 292" width="14.124" height="20.674" transform="translate(183.308 145.453)" fill="#f8bdc5"/>
    <rect id="Rectángulo_293" data-name="Rectángulo 293" width="14.124" height="20.674" transform="translate(186.308 138.453)" fill="#f8bdc5" opacity="0.2"/>
    <path id="Trazado_1852" data-name="Trazado 1852" d="M649.3,121.373l-7.982.614,1.229-31.111,2.659-1.637,3.684.614Z" transform="translate(-414.722 36.052)" fill="#fff"/>
    <path id="Trazado_1853" data-name="Trazado 1853" d="M649.3,121.373l-7.982.614,1.229-31.111,2.659-1.637,3.684.614Z" transform="translate(-414.722 36.052)" fill="#9b59b6"/>
    <path id="Trazado_1854" data-name="Trazado 1854" d="M613.6,83.018,600.914,80.56,597.23,112.7l12.485,3.069Z" transform="translate(-383.116 42.274)" fill="#c9a5d7"/>
    <path id="Trazado_1855" data-name="Trazado 1855" d="M377.227,35.03h-1.843L371.7,67.163l8.186-.408Z" transform="translate(-221.448 74.912)" fill="#fff"/>
    <path id="Trazado_1856" data-name="Trazado 1856" d="M377.227,35.03h-1.843L371.7,67.163l8.186-.408Z" transform="translate(-221.448 74.912)" fill="#e52836" opacity="0.2"/>
    <path id="Trazado_1857" data-name="Trazado 1857" d="M383.351,33.58,381.1,65.92l19.649,2.047L403,36.446Z" transform="translate(-228.187 75.951)" fill="#e52836"/>
    <path id="Trazado_1858" data-name="Trazado 1858" d="M525.93,706.809s-2.455-.2-2.866,6.96c0,0,.411,3.888-.614,5.731s-.411,7.164,2.662,7.778a16.4,16.4,0,0,0,5.946,0s1.433,0,.411-5.117l-2.047-14.943Z" transform="translate(-347.022 -429.438)" fill="#fff"/>
    <path id="Trazado_1859" data-name="Trazado 1859" d="M525.93,706.809s-2.455-.2-2.866,6.96c0,0,.411,3.888-.614,5.731s-.411,7.164,2.662,7.778a16.4,16.4,0,0,0,5.946,0s1.433,0,.411-5.117l-2.047-14.943Z" transform="translate(-347.022 -429.438)" fill="#fff" opacity="0.05"/>
    <path id="Trazado_1860" data-name="Trazado 1860" d="M553.447,260.275a13.7,13.7,0,0,0,.433,4.814l-5.321,1.433s-8.8,1.229-5.321-2.265c1.2-1.2,1.8-3.268,2.053-5.448a30.184,30.184,0,0,0,.15-4.485,39.992,39.992,0,0,0-.362-4.191s12.9-4.5,10.03,2.866a26.2,26.2,0,0,0-1.232,4.106A21.649,21.649,0,0,0,553.447,260.275Z" transform="translate(-361.669 -101.1)" fill="#f8bdc5"/>
    <path id="Trazado_1861" data-name="Trazado 1861" d="M561.83,253.008a26.193,26.193,0,0,0-1.232,4.106,8.818,8.818,0,0,1-8.435-2.781,39.976,39.976,0,0,0-.362-4.191S564.7,245.64,561.83,253.008Z" transform="translate(-368.39 -101.107)" opacity="0.11"/>
    <circle id="Elipse_319" data-name="Elipse 319" cx="8.801" cy="8.801" r="8.801" transform="translate(181.57 138.187)" fill="#f8bdc5"/>
    <path id="Trazado_1862" data-name="Trazado 1862" d="M484.445,134.534V137.2l-4.5,11.666-1.229-1.229a2.065,2.065,0,0,1-.187-.232c-2.973-4.225-5.137-32.312-5.137-32.312L470.527,91.34s-3.069-7.362,3.681-6.96,1.433,6.753,1.433,6.753,4.5,22.514,3.888,23.333,0,3.276,0,3.276,1.843,4.709,1.637,8.186S484.445,134.534,484.445,134.534Z" transform="translate(-309.631 16.753)" fill="#f8bdc5"/>
    <path id="Trazado_1863" data-name="Trazado 1863" d="M635.927,131.923l-10.644,22.514-1.637,3.064s-5.1,17.987-10.984,22.293a5.381,5.381,0,0,1-1.093.631L610.34,170.6l1.133-2.854.085-.218a13.748,13.748,0,0,0,3.07-4.5c1.229-2.866,4.709-8.6,4.709-8.6a10.121,10.121,0,0,0,.614-2.866c0-1.229,11.666-21.492,11.666-21.492s1.022-9.211,5.946-4.709S635.927,131.923,635.927,131.923Z" transform="translate(-410.353 -11.748)" fill="#f8bdc5"/>
    <path id="Trazado_1864" data-name="Trazado 1864" d="M539.339,705.716s-6.96,2.866-6.142.2c.5-1.614.314-4.664.093-6.8-.142-1.39-.3-2.4-.3-2.4l5.946.614a4.812,4.812,0,0,0-.343,1.628A28.665,28.665,0,0,0,539.339,705.716Z" transform="translate(-354.906 -422.207)" fill="#f8bec6"/>
    <path id="Trazado_1865" data-name="Trazado 1865" d="M577.008,692.556c-1.073,3.726-.793,10.217-.793,10.217s-6.346.818-5.731-.818c.428-1.133,1.053-6.745,1.393-10.044.15-1.441.244-2.441.244-2.441l5.731,1.229A5.726,5.726,0,0,0,577.008,692.556Z" transform="translate(-381.753 -417.01)" fill="#f8bdc5"/>
    <path id="Trazado_1866" data-name="Trazado 1866" d="M533,696.69l5.946.615a4.814,4.814,0,0,0-.343,1.628,6.068,6.068,0,0,1-5.3.161C533.159,697.7,533,696.69,533,696.69Z" transform="translate(-354.913 -422.185)" fill="#fff" opacity="0.1"/>
    <path id="Trazado_1867" data-name="Trazado 1867" d="M581.488,690.7a5.725,5.725,0,0,0-.849,1.86,11.009,11.009,0,0,1-5.128-.646c.15-1.441.244-2.441.244-2.441Z" transform="translate(-385.386 -417.01)" fill="#fff" opacity="0.1"/>
    <path id="Trazado_1868" data-name="Trazado 1868" d="M538.476,456.475l-1.206,8.455a61.144,61.144,0,0,1-2.226,9.466,15.4,15.4,0,0,0-.252,6.23s.818,13.1-.614,16.375-1.229,7.982-1.229,7.982c-3.276,1.843-7.982-.411-7.982-.411l-.411-21.7a50.8,50.8,0,0,1-.614-11.043c.408-5.312-.614-16.169-.614-16.169-2.265.614-2.047,30.5-2.047,30.5v19.445a6.6,6.6,0,0,1-9.211,0c-1.637-4.913-1.022-19.855-1.022-19.855l-.615-8.8a258.5,258.5,0,0,1-3.681-25.994,72.211,72.211,0,0,1-.176-12.807q.059-.7.13-1.339a35.731,35.731,0,0,1,1.059-5.734,12.908,12.908,0,0,1,.623-1.815l21.993,1.022,1.3.059,3.115.144c.34.513.66,1.034.957,1.555.43.756.818,1.518,1.164,2.265.2.436.385.875.566,1.311A34.6,34.6,0,0,1,538.476,456.475Z" transform="translate(-335.825 -230.482)" fill="#145afc"/>
    <path id="Trazado_1869" data-name="Trazado 1869" d="M514.83,436.463s-.963,9.628-7.75,6.841q.06-.7.13-1.339c1.6.433,6.017,1.031,6.184-5.5Z" transform="translate(-336.333 -235.643)" opacity="0.1"/>
    <path id="Trazado_1870" data-name="Trazado 1870" d="M598.269,438.193c-4.7,1.679-6.473-2.792-7.079-5.343l1.3.059c.705,4.012,3.52,4.247,5.233,3.964Q598.009,437.545,598.269,438.193Z" transform="translate(-396.626 -233.055)" opacity="0.1"/>
    <path id="Trazado_1871" data-name="Trazado 1871" d="M530.671,717.662c-1.045-.164-2.642-.739-2.141-2.747,0,0-1.934-.668-1.73,7.314a24.572,24.572,0,0,1-.615,4.709c-.411.821,0,5.731,4.3,5.321,0,0,3.069,1.022,3.888-.615,0,0-.614-9.415.411-11.043a2.922,2.922,0,0,0-.411-3.276,4.428,4.428,0,0,1-2.492.566A10.962,10.962,0,0,0,530.671,717.662Z" transform="translate(-349.94 -435.24)" fill="#fff"/>
    <path id="Trazado_1872" data-name="Trazado 1872" d="M559.349,748.255s-2.047,3.48,2.662,3.888,6.753-2.047,6.753-2.047a3.6,3.6,0,0,0,0-2.866c-.615-1.843.2-5.117.2-5.117s.614-3.888-.818-3.069S559.349,748.255,559.349,748.255Z" transform="translate(-373.484 -452.465)" fill="#fff"/>
    <path id="Trazado_1873" data-name="Trazado 1873" d="M559.349,748.255s-2.047,3.48,2.662,3.888,6.753-2.047,6.753-2.047a3.6,3.6,0,0,0,0-2.866c-.615-1.843.2-5.117.2-5.117s.614-3.888-.818-3.069S559.349,748.255,559.349,748.255Z" transform="translate(-373.484 -452.465)" fill="#fff" opacity="0.05"/>
    <path id="Trazado_1874" data-name="Trazado 1874" d="M564.627,727.123s-2.455-1.022-3.069,1.022-.2,7.164-1.433,8.6-2.866,5.321,2.047,5.117,5.946-1.843,5.946-1.843-.2-5.117.411-6.549a6.861,6.861,0,0,0,0-3.681S568.718,726.905,564.627,727.123Z" transform="translate(-373.438 -443.818)" fill="#fff"/>
    <circle id="Elipse_320" data-name="Elipse 320" cx="0.411" cy="0.411" r="0.411" transform="translate(160.075 111.986)" fill="#fff" opacity="0.2"/>
    <circle id="Elipse_321" data-name="Elipse 321" cx="0.411" cy="0.411" r="0.411" transform="translate(168.672 113.008)" fill="#fff" opacity="0.2"/>
    <path id="Trazado_1875" data-name="Trazado 1875" d="M478.839,103.081h-.2c0-.088.144-8.721-4.814-9.517a2.608,2.608,0,0,0-2.373.657c-2.047,2.03-1.2,7.764-1.192,7.821l-.2.031c-.037-.241-.869-5.9,1.252-8a2.8,2.8,0,0,1,2.548-.716C478.986,94.181,478.842,102.993,478.839,103.081Z" transform="translate(-309.655 10.341)" fill="#fff"/>
    <path id="Trazado_1876" data-name="Trazado 1876" d="M703.137,144.278l-.184-.088c.031-.068,3.186-6.9-.983-9.282l.1-.178C706.4,137.2,703.171,144.207,703.137,144.278Z" transform="translate(-476.037 -19.352)" fill="#fff"/>
    <path id="Trazado_1877" data-name="Trazado 1877" d="M553.88,290.461l-5.321,1.433s-8.8,1.229-5.321-2.265c1.2-1.2,1.8-3.268,2.053-5.448,1.39,2.18,3.064,1.56,3.064,1.56l5.074-.1h.02A13.629,13.629,0,0,0,553.88,290.461Z" transform="translate(-361.669 -126.483)" fill="#fff" opacity="0.1"/>
    <path id="Trazado_1878" data-name="Trazado 1878" d="M612.672,289.7a5.384,5.384,0,0,1-1.093.631L610.35,280.5l1.133-2.854.283-.218C614.323,278.158,613,287.57,612.672,289.7Z" transform="translate(-410.36 -121.644)" fill="#fff" opacity="0.1"/>
    <path id="Trazado_1879" data-name="Trazado 1879" d="M506.458,261.54V264.2l-4.5,11.666-1.229-1.229a2.07,2.07,0,0,1-.187-.232C501.072,268.325,506.458,261.54,506.458,261.54Z" transform="translate(-331.645 -110.254)" fill="#fff" opacity="0.1"/>
    <path id="Trazado_1880" data-name="Trazado 1880" d="M539.272,432.021c-2.863.716-17.808,4.228-22.242.9a10.106,10.106,0,0,0-5.74-1.869,12.907,12.907,0,0,1,.623-1.815l21.993,1.022,1.3.059,3.115.144Q538.828,431.239,539.272,432.021Z" transform="translate(-339.351 -230.467)" fill="#fff" opacity="0.1"/>
    <path id="Trazado_1881" data-name="Trazado 1881" d="M474.1,90.59s3.069,5.117,5.117,0" transform="translate(-312.692 12.289)" fill="#f8bdc5"/>
    <path id="Trazado_1882" data-name="Trazado 1882" d="M696.744,127.81s-1.229,6.142,3.681,3.276" transform="translate(-472.193 -14.391)" fill="#f8bdc5"/>
    <g id="Grupo_531" data-name="Grupo 531" transform="translate(172.429 198.781)" opacity="0.1">
      <path id="Trazado_1883" data-name="Trazado 1883" d="M546.983,524.515c-.1-1.246-.173-2.025-.173-2.025-2.265.615-2.047,30.5-2.047,30.5v19.445a7.118,7.118,0,0,1-4.063,1.889,6.759,6.759,0,0,0,5.1-1.889V552.987S545.638,531.333,546.983,524.515Z" transform="translate(-532.862 -496.094)"/>
      <path id="Trazado_1884" data-name="Trazado 1884" d="M542.132,435.627c-.173-.436-.357-.875-.566-1.311-.345-.759-.733-1.521-1.164-2.265-.283-.521-.617-1.039-.957-1.555l-3.115-.144-1.3-.059L513.04,429.27l-.02.045,20.991.977,1.3.059,3.115.144c.34.513.66,1.034.957,1.555.43.756.818,1.518,1.164,2.265.2.436.385.875.566,1.311a34.61,34.61,0,0,1,1.008,20.855l-1.206,8.455a61.131,61.131,0,0,1-2.226,9.466,15.4,15.4,0,0,0-.252,6.23s.818,13.1-.615,16.375-1.229,7.982-1.229,7.982a5.947,5.947,0,0,1-2.565.708,6.513,6.513,0,0,0,3.588-.708s-.2-4.709,1.229-7.982.614-16.375.614-16.375a15.4,15.4,0,0,1,.252-6.23,61.144,61.144,0,0,0,2.226-9.466l1.206-8.455A34.614,34.614,0,0,0,542.132,435.627Z" transform="translate(-513.02 -429.27)"/>
    </g>
    <path id="Trazado_1885" data-name="Trazado 1885" d="M514.56,269.867c2.832,1.334,9.458-3.789,9.458-3.789,2.866.818.818,12.691.818,12.691l-.111.493c-.623,2.8-1,5.646-1.348,8.495a8.441,8.441,0,0,1-2.226,4.114c-3.48,6.55,2.047,19.445,2.047,19.445s-17.808,4.709-22.718,1.022-12.281-.818-12.281-.818c3.48-3.069,3.681-22.107,3.681-22.107V274.689c.411-6.142,5.946-13.1,5.946-13.1a10.286,10.286,0,0,0,8.56,6.765c1.4,2.265,3.115,1.628,3.115,1.628Z" transform="translate(-322.799 -110.29)" fill="#f36b2e"/>
    <path id="Trazado_1886" data-name="Trazado 1886" d="M534.287,202.27a5.021,5.021,0,0,0-2.132,0c-2.226.614-2.925,3.421-4.644,4.961-.617.566-1.379.946-1.94,1.56a5.1,5.1,0,0,0-.985,4.177c.212,1.464.779,2.851,1.133,4.287a14.834,14.834,0,0,1,.394,4.395,2.586,2.586,0,0,1-.379,1.39c-.411.566-1.167.745-1.7,1.2-1.625,1.4-.283,4.3-1.475,6.088-.513.773-1.472,1.283-1.668,2.189a3,3,0,0,0,.445,1.883,13.635,13.635,0,0,0,2.832,4.318,13.279,13.279,0,0,0,4.454,2.336c.479.178,1.079.334,1.444-.02.45-.442.11-1.189-.2-1.736a3.69,3.69,0,0,1-.589-2.832c.289-.957,1.215-1.591,1.838-2.39,1.606-2.067,1.079-5.035.283-7.526a5.848,5.848,0,0,1-.43-3.237c.122-.459.362-.875.515-1.325.68-2-.462-4.2-.127-6.295a9.04,9.04,0,0,1,.849-2.342l1.8-3.865a3.82,3.82,0,0,1,.8-1.252,2.832,2.832,0,0,1,1.982-.617,5.38,5.38,0,0,1,3.86,1.758c1.926,2.141,1.8,5.38,1.572,8.234l-.167,2.061a7.544,7.544,0,0,1-1.218,4.222c-.728.895-1.9,1.5-2.2,2.619-.26.96.229,2-.028,2.962-.385,1.436-2.158,1.954-3.095,3.115a3.186,3.186,0,0,0-.232,3.582c.357.566.926,1.133.849,1.8-.065.535-.547.968-.544,1.506a1.2,1.2,0,0,0,.869,1.039,3.511,3.511,0,0,0,1.436.068l5.077-.459a1.787,1.787,0,0,0,.9-.249,1.59,1.59,0,0,0,.518-1.158c.2-1.807-.283-3.78.62-5.36.283-.507.7-.929,1.014-1.416,1.733-2.718-.014-6.405.929-9.489.447-1.464,1.49-2.721,1.767-4.225.368-2-.677-3.964-1.082-5.946-.416-2.047-.193-4.3-1.286-6.082a6.256,6.256,0,0,0-3.876-2.594,29.9,29.9,0,0,0-4.247-.382C536.861,203.066,535.6,202.482,534.287,202.27Z" transform="translate(-346.207 -67.685)" fill="#fff" opacity="0.1"/>
    <path id="Trazado_1887" data-name="Trazado 1887" d="M534.287,200.82a5.021,5.021,0,0,0-2.132,0c-2.226.614-2.925,3.421-4.644,4.961-.617.566-1.379.946-1.94,1.56a5.1,5.1,0,0,0-.985,4.177c.212,1.464.779,2.851,1.133,4.287a14.834,14.834,0,0,1,.394,4.395,2.586,2.586,0,0,1-.379,1.39c-.411.566-1.167.745-1.7,1.2-1.625,1.4-.283,4.3-1.475,6.088-.513.773-1.472,1.283-1.668,2.189a3,3,0,0,0,.445,1.883,13.635,13.635,0,0,0,2.832,4.318,13.279,13.279,0,0,0,4.454,2.336c.479.178,1.079.334,1.444-.02.45-.442.11-1.189-.2-1.736a3.69,3.69,0,0,1-.589-2.832c.289-.957,1.215-1.591,1.838-2.39,1.606-2.067,1.079-5.035.283-7.526a5.848,5.848,0,0,1-.43-3.237c.122-.459.362-.875.515-1.325.68-2-.462-4.2-.127-6.295a9.041,9.041,0,0,1,.849-2.342l1.8-3.865a3.819,3.819,0,0,1,.8-1.252,2.831,2.831,0,0,1,1.982-.617,5.38,5.38,0,0,1,3.86,1.758c1.926,2.141,1.8,5.38,1.572,8.234l-.167,2.061a7.543,7.543,0,0,1-1.218,4.222c-.728.895-1.9,1.5-2.2,2.619-.26.96.229,2-.028,2.962-.385,1.436-2.158,1.954-3.095,3.115a3.186,3.186,0,0,0-.232,3.582c.357.566.926,1.133.849,1.8-.065.535-.547.968-.544,1.506a1.2,1.2,0,0,0,.869,1.039,3.511,3.511,0,0,0,1.436.068l5.077-.459a1.787,1.787,0,0,0,.9-.249,1.59,1.59,0,0,0,.518-1.158c.2-1.807-.283-3.78.62-5.36.283-.507.7-.929,1.014-1.416,1.733-2.718-.014-6.405.929-9.489.447-1.464,1.49-2.721,1.767-4.225.368-2-.677-3.964-1.082-5.946-.416-2.047-.193-4.3-1.286-6.082a6.256,6.256,0,0,0-3.876-2.594,29.889,29.889,0,0,0-4.247-.382C536.861,201.619,535.6,201.035,534.287,200.82Z" transform="translate(-346.207 -66.646)"/>
    <path id="Trazado_1888" data-name="Trazado 1888" d="M529.75,363.083s4.095,1.229,10.03-1.433h3.067s.2,2.866,8.186,1.637" transform="translate(-352.583 -182.016)" opacity="0.1"/>
    <ellipse id="Elipse_322" data-name="Elipse 322" cx="152.059" cy="13.875" rx="152.059" ry="13.875" transform="translate(45 281.53)" fill="#fff" opacity="0.1"/>
    <rect id="Rectángulo_294" data-name="Rectángulo 294" width="22.653" height="8.495" rx="4.247" transform="translate(116.357 173.078)" fill="#fff" opacity="0.1"/>
    <rect id="Rectángulo_295" data-name="Rectángulo 295" width="22.653" height="8.495" rx="4.247" transform="translate(126.551 182.423)" fill="#fff" opacity="0.1"/>
    <rect id="Rectángulo_296" data-name="Rectángulo 296" width="22.653" height="8.495" rx="4.247" transform="translate(215.748 173.645)" fill="#fff" opacity="0.1"/>
    <rect id="Rectángulo_297" data-name="Rectángulo 297" width="22.653" height="8.495" rx="4.247" transform="translate(225.941 182.989)" fill="#fff" opacity="0.1"/>
    <rect id="Rectángulo_298" data-name="Rectángulo 298" width="22.653" height="8.495" rx="4.247" transform="translate(109.278 191.767)" fill="#fff" opacity="0.1"/>
    <rect id="Rectángulo_299" data-name="Rectángulo 299" width="22.653" height="8.495" rx="4.247" transform="translate(131.931 224.897)" fill="#fff" opacity="0.1"/>
    <rect id="Rectángulo_300" data-name="Rectángulo 300" width="22.653" height="8.495" rx="4.247" transform="translate(142.125 234.242)" fill="#fff" opacity="0.1"/>
    <rect id="Rectángulo_301" data-name="Rectángulo 301" width="22.653" height="8.495" rx="4.247" transform="translate(124.852 243.586)" fill="#fff" opacity="0.1"/>
    <rect id="Rectángulo_302" data-name="Rectángulo 302" width="22.653" height="8.495" rx="4.247" transform="translate(223.11 248.683)" fill="#fff" opacity="0.1"/>
    <rect id="Rectángulo_303" data-name="Rectángulo 303" width="22.653" height="8.495" rx="4.247" transform="translate(205.837 258.028)" fill="#fff" opacity="0.1"/>
    <g id="Grupo_532" data-name="Grupo 532" transform="translate(299.924 209.46)" opacity="0.1">
      <path id="Trazado_1889" data-name="Trazado 1889" d="M1005.74,580.652s-4.1-20.773,4.344-35.01a32.082,32.082,0,0,0,4.426-19.8,53.958,53.958,0,0,0-1.982-9.667" transform="translate(-993.002 -502.242)" fill="none" stroke="#535461" stroke-miterlimit="10" stroke-width="2"/>
      <path id="Trazado_1890" data-name="Trazado 1890" d="M1028.094,471.907c-.226,2.478-5.38,9.254-5.38,9.254s-3.828-7.6-3.6-10.081a4.508,4.508,0,1,1,8.977.824Z" transform="translate(-1003.295 -466.984)" fill="#fff"/>
      <path id="Trazado_1891" data-name="Trazado 1891" d="M1048.443,516.422c-1.538,1.957-9.543,4.848-9.543,4.848s.917-8.461,2.455-10.418a4.508,4.508,0,1,1,7.079,5.57Z" transform="translate(-1017.485 -497.086)" fill="#fff"/>
      <path id="Trazado_1892" data-name="Trazado 1892" d="M1036.794,595.969c-2.316.912-10.684-.634-10.684-.634s5.063-6.841,7.379-7.753a4.508,4.508,0,1,1,3.3,8.388Z" transform="translate(-1008.317 -553.207)" fill="#fff"/>
      <path id="Trazado_1893" data-name="Trazado 1893" d="M1016.179,657.981c-2.129,1.291-10.638,1.181-10.638,1.181s3.834-7.6,5.963-8.889a4.508,4.508,0,1,1,4.675,7.708Z" transform="translate(-993.572 -597.903)" fill="#fff"/>
      <path id="Trazado_1894" data-name="Trazado 1894" d="M1002.714,532.165c1.62,1.892,9.738,4.44,9.738,4.44s-1.274-8.416-2.891-10.3a4.508,4.508,0,1,0-6.847,5.865Z" transform="translate(-990.768 -508.375)" fill="#fff"/>
      <path id="Trazado_1895" data-name="Trazado 1895" d="M976.753,601.729c2.11,1.32,10.622,1.322,10.622,1.322s-3.732-7.645-5.845-8.968a4.508,4.508,0,1,0-4.777,7.646Z" transform="translate(-971.416 -557.602)" fill="#fff"/>
      <path id="Trazado_1896" data-name="Trazado 1896" d="M964.895,675.532c1.858,1.656,10.245,3.1,10.245,3.1s-2.387-8.169-4.247-9.826a4.508,4.508,0,1,0-6,6.725Z" transform="translate(-963.273 -610.765)" fill="#fff"/>
    </g>
    <g id="Grupo_533" data-name="Grupo 533" transform="translate(270.327 241.347)" opacity="0.1">
      <path id="Trazado_1897" data-name="Trazado 1897" d="M881.278,640.135s-2.2-11.154,2.33-18.8a17.227,17.227,0,0,0,2.376-10.636,28.975,28.975,0,0,0-1.059-5.19" transform="translate(-874.516 -598.171)" fill="none" stroke="#535461" stroke-miterlimit="10" stroke-width="2"/>
      <path id="Trazado_1898" data-name="Trazado 1898" d="M893.279,582.094c-.122,1.331-2.888,4.97-2.888,4.97s-2.056-4.08-1.934-5.411a2.421,2.421,0,0,1,4.814.442Z" transform="translate(-880.041 -579.591)" fill="#fff"/>
      <path id="Trazado_1899" data-name="Trazado 1899" d="M904.2,605.991c-.827,1.051-5.125,2.6-5.125,2.6s.493-4.531,1.32-5.593a2.421,2.421,0,0,1,3.806,2.99Z" transform="translate(-887.653 -595.749)" fill="#fff"/>
      <path id="Trazado_1900" data-name="Trazado 1900" d="M897.947,648.441c-1.243.49-5.737-.34-5.737-.34s2.718-3.681,3.964-4.162a2.421,2.421,0,0,1,1.775,4.5Z" transform="translate(-882.735 -625.616)" fill="#fff"/>
      <path id="Trazado_1901" data-name="Trazado 1901" d="M886.881,681.555c-1.133.694-5.711.634-5.711.634s2.059-4.08,3.2-4.774a2.421,2.421,0,1,1,2.509,4.14Z" transform="translate(-874.821 -649.442)" fill="#fff"/>
      <path id="Trazado_1902" data-name="Trazado 1902" d="M879.641,614.1c.869,1.017,5.23,2.384,5.23,2.384s-.682-4.531-1.552-5.533a2.422,2.422,0,0,0-3.681,3.149Z" transform="translate(-873.306 -601.466)" fill="#fff"/>
      <path id="Trazado_1903" data-name="Trazado 1903" d="M865.708,651.451c1.133.708,5.7.711,5.7.711s-2-4.106-3.138-4.814a2.421,2.421,0,1,0-2.566,4.106Z" transform="translate(-862.921 -627.897)" fill="#fff"/>
      <path id="Trazado_1904" data-name="Trazado 1904" d="M859.546,691.215c1,.889,5.5,1.665,5.5,1.665s-1.28-4.386-2.265-5.275a2.421,2.421,0,1,0-3.223,3.613Z" transform="translate(-858.75 -656.579)" fill="#fff"/>
    </g>
    <g id="Grupo_534" data-name="Grupo 534" transform="translate(91.085 243.046)" opacity="0.1">
      <path id="Trazado_1905" data-name="Trazado 1905" d="M248.278,646.135s-2.2-11.154,2.33-18.8a17.228,17.228,0,0,0,2.376-10.636,28.978,28.978,0,0,0-1.059-5.19" transform="translate(-241.516 -604.171)" fill="none" stroke="#535461" stroke-miterlimit="10" stroke-width="2"/>
      <path id="Trazado_1906" data-name="Trazado 1906" d="M260.279,588.094c-.122,1.331-2.888,4.97-2.888,4.97s-2.056-4.08-1.934-5.411a2.421,2.421,0,0,1,4.814.442Z" transform="translate(-247.041 -585.592)" fill="#fff"/>
      <path id="Trazado_1907" data-name="Trazado 1907" d="M271.2,611.991c-.827,1.051-5.125,2.6-5.125,2.6s.493-4.531,1.32-5.592a2.421,2.421,0,0,1,3.806,2.99Z" transform="translate(-254.653 -601.749)" fill="#fff"/>
      <path id="Trazado_1908" data-name="Trazado 1908" d="M264.947,654.441c-1.243.49-5.737-.34-5.737-.34s2.718-3.681,3.964-4.163a2.421,2.421,0,0,1,1.775,4.5Z" transform="translate(-249.735 -631.616)" fill="#fff"/>
      <path id="Trazado_1909" data-name="Trazado 1909" d="M253.881,687.555c-1.133.694-5.711.634-5.711.634s2.059-4.08,3.2-4.774a2.421,2.421,0,1,1,2.509,4.14Z" transform="translate(-241.821 -655.442)" fill="#fff"/>
      <path id="Trazado_1910" data-name="Trazado 1910" d="M246.641,620.1c.869,1.017,5.23,2.384,5.23,2.384s-.682-4.531-1.552-5.533a2.422,2.422,0,0,0-3.681,3.149Z" transform="translate(-240.306 -607.466)" fill="#fff"/>
      <path id="Trazado_1911" data-name="Trazado 1911" d="M232.707,657.451c1.133.708,5.7.711,5.7.711s-2-4.106-3.137-4.814a2.421,2.421,0,1,0-2.566,4.106Z" transform="translate(-229.921 -633.898)" fill="#fff"/>
      <path id="Trazado_1912" data-name="Trazado 1912" d="M226.546,697.215c1,.889,5.5,1.665,5.5,1.665s-1.28-4.386-2.265-5.275a2.421,2.421,0,1,0-3.223,3.614Z" transform="translate(-225.75 -662.579)" fill="#fff"/>
    </g>
  </g>
</svg>
