<svg xmlns="http://www.w3.org/2000/svg" xmlns:xlink="http://www.w3.org/1999/xlink" width="173.674" height="133.007" viewBox="0 0 173.674 133.007">
  <defs>
    <linearGradient id="linear-gradient" x1="0.5" y1="1" x2="0.5" gradientUnits="objectBoundingBox">
      <stop offset="0" stop-color="gray" stop-opacity="0.251"/>
      <stop offset="0.54" stop-color="gray" stop-opacity="0.122"/>
      <stop offset="1" stop-color="gray" stop-opacity="0.102"/>
    </linearGradient>
    <linearGradient id="linear-gradient-2" x1="0.501" y1="1" x2="0.501" y2="-0.04" xlink:href="#linear-gradient"/>
    <linearGradient id="linear-gradient-3" x1="0.5" y1="1" x2="0.5" y2="0" xlink:href="#linear-gradient"/>
    <linearGradient id="linear-gradient-4" x1="246.583" y1="-1170.459" x2="246.583" y2="-1171.347" xlink:href="#linear-gradient"/>
    <linearGradient id="linear-gradient-5" x1="1.415" y1="-0.941" x2="1.415" y2="-1.927" xlink:href="#linear-gradient"/>
    <linearGradient id="linear-gradient-6" x1="0.5" x2="0.5" y2="1" gradientUnits="objectBoundingBox">
      <stop offset="0" stop-color="#001c2b"/>
      <stop offset="1" stop-color="#0072bb"/>
    </linearGradient>
  </defs>
  <g id="Grupo_541" data-name="Grupo 541" transform="translate(-101 -193.518)">
    <path id="Trazado_1746" data-name="Trazado 1746" d="M527.614,614.467c-.1-.1-.2-.2-.273-.283a1.2,1.2,0,0,1-.283-.544h.072l.034-.154a14.824,14.824,0,0,0-4.447-14.022.164.164,0,0,0,.02-.036,15.476,15.476,0,0,0,.177-9.2,26.664,26.664,0,0,0,2.379-3.571c2.453-1.876,5-4.59,5.785-8.116a10.2,10.2,0,0,0,.2-1.159,1.24,1.24,0,0,0,.185-1.428,1.36,1.36,0,0,0-.088-.187.47.47,0,0,0-.034-.052,1.159,1.159,0,0,0-.07-.1l-.046-.052a1.038,1.038,0,0,0-.074-.074l-.052-.044-.08-.056-.056-.034-.086-.042-.054-.024-.1-.032-.048-.014a1.215,1.215,0,0,0-.136-.028h0a2.146,2.146,0,0,0-.909.09s-.722,1.252-.439,1.729c-.219.277-.8,1.017-1.6,1.968a10.83,10.83,0,0,0-.239-2.371,10.237,10.237,0,0,0-.295-1.139,1.226,1.226,0,0,0-.421-1.376,1.374,1.374,0,0,0-.156-.134l-.052-.034a1.154,1.154,0,0,0-.106-.064l-.062-.028a.986.986,0,0,0-.1-.038l-.064-.018-.1-.02h-.221l-.1.01h-.05a1.135,1.135,0,0,0-.136.032h0a2.146,2.146,0,0,0-.79.457s-.14,1.438.313,1.757a69.26,69.26,0,0,1-2.676,8.419,16.035,16.035,0,0,1-1.478,1.135v-.309a1.589,1.589,0,0,0,0-.171h0a1.571,1.571,0,0,0-.026-.162l.026-.014.108-.06.156-.1.1-.064q.112-.078.217-.162l.082-.07c.05-.042.1-.086.144-.13l.068-.1q.086-.088.167-.185l.058-.07a2.244,2.244,0,0,0,.144-.2l.058-.086q.062-.1.118-.2l.036-.064c.046-.086.088-.175.128-.265l.032-.08q.044-.108.08-.223a.3.3,0,0,1,.026-.078c.03-.1.056-.2.076-.3a.127.127,0,0,1,.01-.06q.024-.128.04-.259V582.1c0-.106.016-.213.016-.323a3.521,3.521,0,0,0-.453-1.729l.167-.044.122-.038c.046-.016.068-.03.062-.04-.086-.116-.174-.227-.265-.335l-.088-.1a1.456,1.456,0,0,0-.2-.2l-.1-.1c-.064-.062-.128-.124-.2-.182l-.1-.09c-.08-.07-.16-.134-.243-.2l-.052-.042c-.1-.072-.2-.14-.295-.2l-.112-.068c-.064-.04-.13-.078-.2-.114l-.13-.068-.182-.088-.134-.06c-.064-.026-.13-.052-.2-.074l-.122-.044c-.1-.032-.2-.06-.295-.086l-.152-.034-.163-.034-.164-.026-.151-.018-.169-.014h-.315a2.768,2.768,0,0,0-.279.014h0c-2.182.179-4.092,2.084-4.092,5.111v2.515h3.41v1.139a3.537,3.537,0,0,0-2.054,3.21v9.7l-2.862,13.3h-.014v.036h0l-.562,2.5,4.255.68a.219.219,0,0,0,.134-.251.787.787,0,0,0-.05-.2,3.383,3.383,0,0,0-.243-.477c-.151-.259-.329-.536-.449-.786a1.754,1.754,0,0,1-.138-.4,1.557,1.557,0,0,1-.028-.217l3.131-10.291h-.014l.074-.243s4,1.713,5.015,5.137a8.04,8.04,0,0,1,.09,5.157h-.014v.034c-.044.11-.076.173-.076.173h.076v1.884h4.319C528.541,615.3,528.039,614.882,527.614,614.467Z" transform="translate(-341.912 -289.424)" fill="url(#linear-gradient)"/>
    <path id="Trazado_1747" data-name="Trazado 1747" d="M541.024,614.132s7.45-7.833,5.015-15.362l-1.954.4s-2.622,11.033-5.416,12.615S541.024,614.132,541.024,614.132Z" transform="translate(-362.463 -309.401)" fill="#6c63ff"/>
    <path id="Trazado_1748" data-name="Trazado 1748" d="M541.024,614.132s7.45-7.833,5.015-15.362l-1.954.4s-2.622,11.033-5.416,12.615S541.024,614.132,541.024,614.132Z" transform="translate(-362.463 -309.401)" opacity="0.05"/>
    <path id="Trazado_1749" data-name="Trazado 1749" d="M557.639,599.376l.325-.066c2.427,7.528-5.015,15.362-5.015,15.362l-.229-.038C553.578,613.691,559.9,606.4,557.639,599.376Z" transform="translate(-374.36 -309.833)" fill="#fff" opacity="0.2"/>
    <path id="Trazado_1750" data-name="Trazado 1750" d="M569.452,592.349s.542-.674-.307-1.519-1.888.157-1.888.157-.148,1.5.351,1.735S569.452,592.349,569.452,592.349Z" transform="translate(-385.965 -302.784)" fill="#985454"/>
    <path id="Trazado_1751" data-name="Trazado 1751" d="M572.362,592.415s.542-.674-.307-1.518a1.061,1.061,0,0,0-.9-.331,1.075,1.075,0,0,1,1.121.287c.849.844.307,1.519.307,1.519a6,6,0,0,1-1.248.4A6.549,6.549,0,0,0,572.362,592.415Z" transform="translate(-389.093 -302.799)" fill="#fff" opacity="0.2"/>
    <rect id="Rectángulo_280" data-name="Rectángulo 280" width="23.752" height="5.847" transform="translate(198.72 259.934)" fill="#e0e0e0"/>
    <g id="Grupo_515" data-name="Grupo 515" transform="translate(105.559 280.615)" opacity="0.2">
      <path id="Trazado_1760" data-name="Trazado 1760" d="M189.885,555.2l.018-.06S189.681,555.106,189.885,555.2Z" transform="translate(-189.799 -555.133)" fill="url(#linear-gradient-2)"/>
    </g>
    <g id="Grupo_516" data-name="Grupo 516" transform="translate(101 279.377)" opacity="0.2">
      <path id="Trazado_1761" data-name="Trazado 1761" d="M192.415,553.946a1.449,1.449,0,0,0-.078-.2c0-.02-.022-.038-.032-.058a1.237,1.237,0,0,0-.066-.112c-.014-.02-.03-.038-.044-.058s-.047-.057-.072-.084l-.052-.05a.824.824,0,0,0-.08-.066l-.056-.04-.088-.052-.056-.03-.1-.042-.05-.02q-.072-.024-.142-.04h0a2.269,2.269,0,0,0-.965.026s-.921,1.358-.566,1.845l-.116-.036s-6.838,7.623-10.7,9.047q-.148-.1-.307-.189v-1.426a1.682,1.682,0,0,0,0-.178h0a1.663,1.663,0,0,0-.028-.171l.028-.016.114-.064.166-.1.106-.068q.118-.082.231-.172l.086-.074c.052-.044.1-.09.152-.138l.088-.086a2.554,2.554,0,0,0,.177-.2l.062-.076q.08-.1.152-.2l.062-.092q.066-.1.126-.2l.038-.068c.048-.09.094-.185.134-.281l.034-.084q.046-.116.086-.235a.267.267,0,0,1,.028-.082,2.856,2.856,0,0,0,.08-.313.126.126,0,0,1,.012-.064q.026-.134.042-.273v-.092c.01-.112.018-.227.018-.341a3.723,3.723,0,0,0-.83-2.349c.293-.457.483-.726.483-.726-.177-.12-.349-.233-.522-.337l-.166-.1c-.114-.068-.231-.136-.343-.2l-.2-.1c-.1-.054-.2-.106-.307-.156l-.2-.09c-.1-.044-.2-.088-.291-.126l-.2-.076c-.1-.038-.2-.072-.289-.1l-.181-.06c-.1-.032-.2-.058-.295-.084l-.16-.044c-.11-.026-.219-.05-.327-.07l-.116-.024c-.146-.026-.293-.046-.437-.06h0a5.216,5.216,0,0,0-2.626.4,4.861,4.861,0,0,1,.59-2.451l-.09-.03-.032.03s-.108.024-.275.054a2.3,2.3,0,0,0-.142.267,3.054,3.054,0,0,1,.419-1.045l-.09-.03a1.234,1.234,0,0,0-.032-1.659c-.724-1.085-2.052-.241-2.052-.241a5.617,5.617,0,0,0-.2,1.1c-.1-.04-.173-.072-.221-.1a27.349,27.349,0,0,0-1.031,6.888c-2.391,3.4-3.382,8.409-3.575,9.49h0l-.014.086h0c-.014.078-.02.12-.02.12l6.218.144v9.909l-4.537,9.568s1.715.062,4.323.4L172.358,592h0l-.239,1.436h4.309c.479-.957-1.916-1.436-1.916-1.436h-.054l.935-4.776q.62.1,1.274.229a12.469,12.469,0,0,0,1.94.219h0a10.315,10.315,0,0,0,1.615-.07,11.308,11.308,0,0,1-.179,4.4h-.026l-.239,1.436h4.309c.417-.834-1.35-1.306-1.805-1.4l.02-.14a24.036,24.036,0,0,0,.171-4.876A5.9,5.9,0,0,0,184,586.1h0l.06-.052h0l.018-.018-3.21-9c.6-2.548-1.488-5.216-.373-6.562a3.314,3.314,0,0,0,.309-3.336c3.009-1.316,9.105-4.614,10.814-10.325a10.792,10.792,0,0,0,.3-1.224S192.79,555.2,192.415,553.946Z" transform="translate(-167.07 -548.959)" fill="url(#linear-gradient-3)"/>
    </g>
    <path id="Trazado_1762" data-name="Trazado 1762" d="M189.784,563.766s-3.268,10.3,2.207,16.01l1.583-1.2s-3.238-11.247-1.426-13.889C188.953,563.606,189.784,563.766,189.784,563.766Z" transform="translate(-83.454 -281.413)" fill="#ff5252"/>
    <path id="Trazado_1763" data-name="Trazado 1763" d="M196.616,560.124s.664-.554,0-1.551-1.882-.221-1.882-.221-.443,1.438,0,1.771S196.616,560.124,196.616,560.124Z" transform="translate(-88.028 -276.862)" fill="#f6b9ad"/>
    <rect id="Rectángulo_276" data-name="Rectángulo 276" width="3.099" height="4.594" rx="1.55" transform="translate(112.849 296.548) rotate(180)" fill="#f6b9ad"/>
    <path id="Trazado_1764" data-name="Trazado 1764" d="M203.578,585.409s-3.2-11.109-1.456-13.841c.154-.028.253-.05.253-.05l.028-.028.082.028c-1.805,2.642,1.426,13.889,1.426,13.889l-1.583,1.2-.138-.148Z" transform="translate(-93.675 -287.594)" fill="#fff" opacity="0.2"/>
    <circle id="Elipse_304" data-name="Elipse 304" cx="3.432" cy="3.432" r="3.432" transform="translate(107.812 286.695)" fill="#f6b9ad"/>
    <path id="Trazado_1765" data-name="Trazado 1765" d="M218.582,593.767v-1.494a1.535,1.535,0,0,0-.036-.325,3.432,3.432,0,0,0-1.376-6.477h.2a3.432,3.432,0,0,1,1.571,6.477,1.537,1.537,0,0,1,.036.325v1.494a1.538,1.538,0,0,1-1.743,1.537A1.555,1.555,0,0,0,218.582,593.767Z" transform="translate(-106.12 -298.769)" fill="#fff" opacity="0.2"/>
    <path id="Trazado_1766" data-name="Trazado 1766" d="M200.76,636.64s6.62.748,6.864,0c.79-2.421-1.328-5.029-.265-6.3a3.14,3.14,0,0,0,.265-3.1,3.432,3.432,0,0,0-3.432-3.432h0a3.432,3.432,0,0,0-3.432,3.432Z" transform="translate(-93.002 -329.411)" fill="#ff5252"/>
    <path id="Trazado_1767" data-name="Trazado 1767" d="M220.2,630.335a3.14,3.14,0,0,0,.265-3.1,3.432,3.432,0,0,0-3.432-3.432,1.358,1.358,0,0,0-.221.012,3.428,3.428,0,0,1,3.21,3.42,3.14,3.14,0,0,1-.265,3.1c-1.065,1.278,1.053,3.886.265,6.3-.076.231-.758.319-1.665.331,1.119.012,2.018-.064,2.1-.331C221.261,634.219,219.135,631.611,220.2,630.335Z" transform="translate(-105.832 -329.411)" fill="#fff" opacity="0.2"/>
    <path id="Trazado_1768" data-name="Trazado 1768" d="M202.763,686.72h0c2.421,3.426,3.484,8.6,2.794,13.578l-.02.148h-2.068a11.061,11.061,0,0,0,0-5.2,8.224,8.224,0,0,0-3.129-4.981l-1.99,10.184h-1.92l1.92-13.727Z" transform="translate(-89.541 -379.709)" fill="#f6b9ad"/>
    <path id="Trazado_1769" data-name="Trazado 1769" d="M278.525,579.107s.8-.335.453-1.482-1.735-.762-1.735-.762-.845,1.246-.52,1.693S278.525,579.107,278.525,579.107Z" transform="translate(-153.668 -291.839)" fill="#f6b9ad"/>
    <path id="Trazado_1770" data-name="Trazado 1770" d="M218.891,597.079s10.283-3.332,11.747-11.1l-1.906-.584s-7.568,8.449-10.77,8.509S218.891,597.079,218.891,597.079Z" transform="translate(-105.781 -298.705)" fill="#ff5252"/>
    <path id="Trazado_1771" data-name="Trazado 1771" d="M237.966,588.34l.317.1c-1.456,7.775-11.741,11.107-11.741,11.107l-.183-.142C227.57,598.978,236.608,595.592,237.966,588.34Z" transform="translate(-113.467 -301.064)" fill="#fff" opacity="0.2"/>
    <g id="Grupo_517" data-name="Grupo 517" transform="translate(108.368 307.011)" opacity="0.2">
      <path id="Trazado_1772" data-name="Trazado 1772" d="M205.792,704.37,203.8,714.554h.441l1.934-9.887A4.733,4.733,0,0,0,205.792,704.37Z" transform="translate(-203.8 -700.83)" fill="#fff"/>
      <path id="Trazado_1773" data-name="Trazado 1773" d="M226.249,686.72h-.439c2.421,3.426,3.484,8.6,2.794,13.578l-.02.148h.439l.02-.148C229.73,695.32,228.656,690.144,226.249,686.72Z" transform="translate(-221.395 -686.72)" fill="#fff"/>
    </g>
    <path id="Trazado_1774" data-name="Trazado 1774" d="M280.625,579.207s.8-.335.453-1.482a1.061,1.061,0,0,0-.636-.724,1.075,1.075,0,0,1,.849.786c.343,1.147-.453,1.482-.453,1.482a6,6,0,0,1-1.288-.243A6.545,6.545,0,0,0,280.625,579.207Z" transform="translate(-155.987 -291.998)" fill="#fff" opacity="0.2"/>
    <path id="Trazado_1775" data-name="Trazado 1775" d="M184.164,685.94,180,694.728a51.611,51.611,0,0,1,7.25.879c4.614.879,6.81-1.318,6.81-1.318l-2.975-8.347Z" transform="translate(-76.406 -379.085)" fill="#263238"/>
    <path id="Trazado_1776" data-name="Trazado 1776" d="M197.527,754.94s2.207.439,1.757,1.318H195.33l.221-1.318Z" transform="translate(-88.661 -434.244)" fill="#ff5252"/>
    <path id="Trazado_1777" data-name="Trazado 1777" d="M232.567,754.94s2.207.439,1.757,1.318H230.37l.221-1.318Z" transform="translate(-116.672 -434.244)" fill="#ff5252"/>
    <path id="Trazado_1778" data-name="Trazado 1778" d="M184.633,582.4s-5.274,7.468-2.856,10.535l-9.446-.221S174.966,575.815,184.633,582.4Z" transform="translate(-70.275 -295.1)" fill="#fccc63"/>
    <path id="Trazado_1779" data-name="Trazado 1779" d="M184.641,582.508a8.018,8.018,0,0,0-3.679-1.5,9.3,9.3,0,0,1,2.582,1.28s-5.272,7.468-2.856,10.545l-8.315-.2c-.022.124-.032.2-.032.2l9.446.221C179.367,589.977,184.641,582.508,184.641,582.508Z" transform="translate(-70.283 -295.204)" fill="#fff" opacity="0.2"/>
    <path id="Trazado_1780" data-name="Trazado 1780" d="M227.088,685.94h-.652l2.975,8.347a6.723,6.723,0,0,1-4.371,1.518,6.987,6.987,0,0,0,5.029-1.518Z" transform="translate(-112.411 -379.085)" fill="#fff" opacity="0.2"/>
    <path id="Trazado_1781" data-name="Trazado 1781" d="M204.529,754.94h-.439s2.207.439,1.757,1.318h.431C206.726,755.379,204.529,754.94,204.529,754.94Z" transform="translate(-95.664 -434.244)" fill="#fff" opacity="0.2"/>
    <path id="Trazado_1782" data-name="Trazado 1782" d="M239.569,754.94h-.439s2.207.439,1.757,1.318h.439C241.766,755.379,239.569,754.94,239.569,754.94Z" transform="translate(-123.675 -434.244)" fill="#fff" opacity="0.2"/>
    <g id="Grupo_518" data-name="Grupo 518" transform="translate(266.424 283.438)" opacity="0.2">
      <path id="Trazado_1783" data-name="Trazado 1783" d="M991.73,569.22l.02.048C991.911,569.164,991.73,569.22,991.73,569.22Z" transform="translate(-991.73 -569.205)" fill="url(#linear-gradient-4)"/>
    </g>
    <g id="Grupo_519" data-name="Grupo 519" transform="translate(251.556 282.554)" opacity="0.2">
      <path id="Trazado_1784" data-name="Trazado 1784" d="M935.007,602.552l3.484-1-.74-2.1h0l-.01-.03h-.012l-3.884-11.268-1-8.435a3.146,3.146,0,0,0-.054-.319c3.171-5.432,0-12.993-.283-13.651-.036.024-.092.056-.173.1a4.623,4.623,0,0,0-.277-.881s-1.173-.566-1.663.4c-.427.841.014,1.272.136,1.368l-.07.034a2.529,2.529,0,0,1,.445.818,1.917,1.917,0,0,0-.144-.2,1.335,1.335,0,0,1-.233-.018l-.028-.022-.07.034a4.934,4.934,0,0,1,.8,2.626,3.806,3.806,0,0,0-.491-.453,3.878,3.878,0,0,0-2.678-.762h0l-.174.02h0q-.148.02-.293.054l-.072.016-.122.032-.14.044-.1.034-.173.068-.064.028a2.078,2.078,0,0,0-.2.1,3.789,3.789,0,0,1-.716.359c-.034.01-.07.016-.1.024h0a1.258,1.258,0,0,1-.847-.136l-.086-.052a1.16,1.16,0,0,1-.1-.07.559.559,0,0,0,0,.243.736.736,0,0,0,.313.465.694.694,0,0,0,.144.076.588.588,0,0,0,.239.038.548.548,0,0,0,.082-.01l-.02.012a1.5,1.5,0,0,1-.146.082h-.01q-.081.039-.162.072h0a1.905,1.905,0,0,1-.873.116h0l-.1-.012a.573.573,0,0,1-.142-.026,1.066,1.066,0,0,0,.06.09l.022.026.046.056.026.028.05.05.028.026.06.048.024.018.088.058.03.016.064.034.042.018.056.024.046.016.056.018.046.014.064.014.078.014h.433a1.1,1.1,0,0,0,.317-.118,1.88,1.88,0,0,1-.2.106h0l-.1.048-.1.048-.1.044-.1.042-.1.038-.106.038-.1.032-.112.034-.094.026-.122.03-.088.02-.14.026-.074.012-.213.028h0a.924.924,0,0,1,.351.134.884.884,0,0,0,.217.084.808.808,0,0,0,.1,0h.207l.106-.014h.176a1.435,1.435,0,0,1,.588.114,1.023,1.023,0,0,1,.267.183c-.024.052-.048.106-.07.16s-.036.094-.052.14q-.048.143-.084.289a3.091,3.091,0,0,0-.062,1.079,1.179,1.179,0,0,0,.03.2l.01.054q.016.078.036.154v.04q.026.094.056.187l.014.036q.026.076.056.151l.018.044a3.073,3.073,0,0,0,.177.347l.02.034q.046.076.1.148v.014q.058.082.12.161v.012q.058.072.12.14l.014.016a3.114,3.114,0,0,0,.291.279h0a3.108,3.108,0,0,0,.895.52,1.357,1.357,0,0,0,0,.144h0a1.4,1.4,0,0,0,0,.148l.136,1.151q-.092.064-.181.134c-2.879-.919-7.992-9.241-7.992-9.241l-.1.012c.361-.345-.189-1.589-.189-1.589a1.877,1.877,0,0,0-.8-.165h-.281l-.04.012h-.026l-.042.018h-.022l-.062.032h0l-.058.036-.02.014-.04.03-.022.018-.034.032-.022.022-.032.034-.022.024-.032.04-.02.026-.032.05-.016.024c-.016.026-.03.052-.046.08-.489.963.164,1.39.164,1.39a8.94,8.94,0,0,0,.068,1.041c.716,6.433,8.182,10.6,8.563,10.808a13.318,13.318,0,0,0,1,8.395.147.147,0,0,0,.02.028A12.978,12.978,0,0,0,925.19,601.5l.044.13h.064a.9.9,0,0,1-.012.09,1,1,0,0,1-.046.158,1.2,1.2,0,0,1-.132.253h0c-.058.086-.128.174-.2.265l-.076.094c-.309.373-.62.736-.345.836h0l.2-.024,3.587-.353-.2-1.637h.066s-.032-.048-.084-.14v-.03h-.012a7.026,7.026,0,0,1-.451-4.493c.542-3.083,3.839-4.983,3.839-4.983l.088.2h-.012l3.781,8.626v.108a1.463,1.463,0,0,1-.03.257,1.6,1.6,0,0,1-.052.2c-.126.367-.369.8-.459,1.129a1.034,1.034,0,0,0-.03.134.4.4,0,0,0,0,.155.178.178,0,0,0,.132.132h0l.048-.014.1-.03Zm-4.06-25.335q-.11-.046-.223-.082l-.126-1.077a1.4,1.4,0,0,0-.052-.243,3.1,3.1,0,0,0,.6-.5C931.087,576.005,931.015,576.651,930.947,577.217Z" transform="translate(-917.614 -564.8)" fill="url(#linear-gradient-5)"/>
    </g>
    <path id="Trazado_1785" data-name="Trazado 1785" d="M918.2,580.093s-.724-.471-.183-1.539,1.844-.441,1.844-.441.6,1.378.2,1.759S918.2,580.093,918.2,580.093Z" transform="translate(-666.22 -292.743)" fill="#ca7070"/>
    <path id="_Path_" data-name="&lt;Path&gt;" d="M959.165,768.13l-3.031.357a1,1,0,0,1-.2.8c-.353.52-1.105,1.186-.7,1.334l4.158-.491Z" transform="translate(-696.039 -444.788)" fill="#00695c"/>
    <path id="Trazado_1786" data-name="Trazado 1786" d="M956.184,770.632a1,1,0,0,0,.2-.8l-.221.026a1,1,0,0,1-.2.8c-.353.52-1.105,1.185-.7,1.334l.221-.026C955.08,771.818,955.833,771.152,956.184,770.632Z" transform="translate(-696.063 -446.147)" fill="#fff" opacity="0.2"/>
    <path id="_Path_2" data-name="&lt;Path&gt;" d="M1015.372,758.65l-2.786.8a1.454,1.454,0,0,1-.01,1.013c-.233.68-.833,1.591-.4,1.717l4.028-1.149Z" transform="translate(-741.528 -437.21)" fill="#00695c"/>
    <path id="Trazado_1787" data-name="Trazado 1787" d="M990.775,572.4s4.453,9.849-.317,16.158l-1.713-1.017s1.9-11.55-.215-13.959C991.581,572.152,990.775,572.4,990.775,572.4Z" transform="translate(-722.748 -288.31)" fill="#00695c"/>
    <path id="Trazado_1788" data-name="Trazado 1788" d="M987.551,569.673s-.724-.471-.183-1.539,1.843-.441,1.843-.441.6,1.378.2,1.759S987.551,569.673,987.551,569.673Z" transform="translate(-721.659 -284.413)" fill="#ca7070"/>
    <path id="Trazado_1789" data-name="Trazado 1789" d="M1012.8,760.447a1.454,1.454,0,0,0,.01-1.013l2.578-.74-.012-.034-2.786.8a1.455,1.455,0,0,1-.01,1.013c-.233.68-.833,1.591-.4,1.717l.169-.048C1012.018,761.956,1012.571,761.1,1012.8,760.447Z" transform="translate(-741.528 -437.218)" fill="#fff" opacity="0.2"/>
    <rect id="Rectángulo_277" data-name="Rectángulo 277" width="3.099" height="4.594" rx="1.55" transform="matrix(0.993, -0.117, 0.117, 0.993, 262.681, 294.387)" fill="#ca7070"/>
    <path id="Trazado_1790" data-name="Trazado 1790" d="M988.914,595.488s1.871-11.408-.177-13.913a1.441,1.441,0,0,1-.257-.02l-.032-.024-.078.036c2.11,2.407.215,13.959.215,13.959l1.713,1.017c.04-.054.08-.108.118-.164Z" transform="translate(-722.62 -295.62)" fill="#fff" opacity="0.2"/>
    <circle id="Elipse_305" data-name="Elipse 305" cx="3.432" cy="3.432" r="3.432" transform="matrix(0.993, -0.117, 0.117, 0.993, 260.249, 289.378)" fill="#ca7070"/>
    <path id="Trazado_1791" data-name="Trazado 1791" d="M965.61,605.155l-.175-1.484a1.541,1.541,0,0,1,0-.327,3.432,3.432,0,0,1,.6-6.594l-.2.016a3.432,3.432,0,0,0-.8,6.62,1.549,1.549,0,0,0,0,.327l.175,1.484a1.539,1.539,0,0,0,1.912,1.322A1.554,1.554,0,0,1,965.61,605.155Z" transform="translate(-702.189 -307.787)" fill="#fff" opacity="0.2"/>
    <path id="Trazado_1792" data-name="Trazado 1792" d="M974.351,647.137s-6.485,1.519-6.82.8a14.63,14.63,0,0,1-1.1-9.344,3.432,3.432,0,0,1,3.009-3.811h0a3.432,3.432,0,0,1,3.811,3.009Z" transform="translate(-704.825 -338.172)" fill="#00695c"/>
    <path id="Trazado_1793" data-name="Trazado 1793" d="M966.092,696.46l4.574,13.281-2.969.351-4.273-9.751s-3.653,2.1-4.253,5.518.6,5.167.6,5.167l-3.173.385-.05-.144a14.272,14.272,0,0,1,2.726-13.994h0" transform="translate(-696.565 -387.495)" fill="#263238"/>
    <path id="Trazado_1794" data-name="Trazado 1794" d="M967.7,647.961a14.629,14.629,0,0,1-1.1-9.344,3.432,3.432,0,0,1,2.786-3.777.911.911,0,0,0-.221.018h0a3.432,3.432,0,0,0-3.009,3.811,14.629,14.629,0,0,0,1.1,9.344c.118.255,1.025.225,2.142.08C968.5,648.188,967.807,648.182,967.7,647.961Z" transform="translate(-704.609 -338.236)" fill="#fff" opacity="0.2"/>
    <path id="Trazado_1795" data-name="Trazado 1795" d="M929.3,600.8s-9.522-5.117-9.564-13.027l1.978-.235s5.936,9.665,9.075,10.3S929.3,600.8,929.3,600.8Z" transform="translate(-667.757 -300.424)" fill="#00695c"/>
    <g id="Grupo_520" data-name="Grupo 520" transform="translate(259.22 309.773)" opacity="0.2">
      <path id="Trazado_1796" data-name="Trazado 1796" d="M994.35,716.081l4.194,9.572.439-.052-4.273-9.751S994.575,715.924,994.35,716.081Z" transform="translate(-986.62 -712.769)" fill="#fff"/>
      <path id="Trazado_1797" data-name="Trazado 1797" d="M959.755,700.49h0l-.439.052h0a14.272,14.272,0,0,0-2.726,13.994l.05.144.439-.052-.05-.144a14.272,14.272,0,0,1,2.726-13.994Z" transform="translate(-955.817 -700.49)" fill="#fff"/>
    </g>
    <path id="Trazado_1798" data-name="Trazado 1798" d="M920.129,589.06l-.329.038c.042,7.909,9.564,13.027,9.564,13.027l.2-.108C928.466,601.387,920.169,596.438,920.129,589.06Z" transform="translate(-667.805 -301.639)" fill="#fff" opacity="0.2"/>
    <path id="Trazado_1799" data-name="Trazado 1799" d="M955.753,593.095a5.537,5.537,0,0,1,.56,1.324,3.706,3.706,0,0,0,1.844,2.219,3.484,3.484,0,0,0,1.581.237,2.941,2.941,0,0,0,2.184-.949,2.826,2.826,0,0,0,.528-1.476,4.75,4.75,0,0,0-1.753-4.19,4.217,4.217,0,0,0-4.467-.4,4.2,4.2,0,0,1-.792.4,1.386,1.386,0,0,1-1.254-.259.766.766,0,0,0,.853.9,2.139,2.139,0,0,1-1.619.281,1.39,1.39,0,0,0,1.817.491,4.68,4.68,0,0,1-1.924.634c.142-.014.449.213.628.243a3.781,3.781,0,0,0,.658-.03A1.278,1.278,0,0,1,955.753,593.095Z" transform="translate(-694.593 -301.907)" fill="#263238"/>
    <g id="Grupo_521" data-name="Grupo 521" transform="translate(258.715 287.505)" opacity="0.2">
      <path id="Trazado_1800" data-name="Trazado 1800" d="M958.46,593.309a2.116,2.116,0,0,1-.782.3,2.13,2.13,0,0,0,1-.327.776.776,0,0,1-.871-.738,1.313,1.313,0,0,1-.2-.134.766.766,0,0,0,.851.9Z" transform="translate(-956.735 -591.822)" fill="#fff"/>
      <path id="Trazado_1801" data-name="Trazado 1801" d="M963.665,590.3a4.2,4.2,0,0,0,.792-.4,3.812,3.812,0,0,1,1.282-.419,3.86,3.86,0,0,0-1.5.443,4.2,4.2,0,0,1-.792.4c-.038.012-.078.018-.116.026A1.322,1.322,0,0,0,963.665,590.3Z" transform="translate(-961.318 -589.48)" fill="#fff"/>
      <path id="Trazado_1802" data-name="Trazado 1802" d="M954.149,601.507c-.179-.03-.485-.257-.628-.243a4.682,4.682,0,0,0,1.924-.634,1.226,1.226,0,0,1-.431.144,4.685,4.685,0,0,1-1.713.516c.142-.014.449.213.628.243a1.478,1.478,0,0,0,.461-.018.966.966,0,0,1-.241-.008Z" transform="translate(-953.3 -598.393)" fill="#fff"/>
      <path id="Trazado_1803" data-name="Trazado 1803" d="M964.65,609.175a3.485,3.485,0,0,1-1.581-.237,3.729,3.729,0,0,1-1.843-2.219,5.605,5.605,0,0,0-.56-1.324,1.278,1.278,0,0,0-1.159-.578,2.2,2.2,0,0,0-.327.03h.108a1.278,1.278,0,0,1,1.16.578,5.538,5.538,0,0,1,.56,1.324,3.707,3.707,0,0,0,1.844,2.219,3.484,3.484,0,0,0,1.581.237,2.771,2.771,0,0,0,.383-.038Z" transform="translate(-958 -601.739)" fill="#fff"/>
      <path id="Trazado_1804" data-name="Trazado 1804" d="M955.288,598.912a1.4,1.4,0,0,1-1.2-.582,2.041,2.041,0,0,1-.265-.04A1.4,1.4,0,0,0,955.288,598.912Z" transform="translate(-953.716 -596.523)" fill="#fff"/>
    </g>
    <path id="Trazado_1805" data-name="Trazado 1805" d="M918.427,580.05s-.724-.471-.183-1.539a1.061,1.061,0,0,1,.756-.6,1.075,1.075,0,0,0-.975.622c-.544,1.067.182,1.539.182,1.539a6,6,0,0,0,1.31,0A6.548,6.548,0,0,1,918.427,580.05Z" transform="translate(-666.225 -292.726)" fill="#fff" opacity="0.2"/>
    <path id="_Path_3" data-name="&lt;Path&gt;" d="M570.49,768.38h3.051a1,1,0,0,0,.289.784c.411.475,1.236,1.047.849,1.244H570.49Z" transform="translate(-388.565 -444.988)" fill="#6c63ff"/>
    <path id="Trazado_1806" data-name="Trazado 1806" d="M584.837,769.164a1,1,0,0,1-.289-.784h.221a1,1,0,0,0,.289.784c.411.475,1.236,1.047.849,1.244h-.221C586.079,770.211,585.254,769.64,584.837,769.164Z" transform="translate(-399.801 -444.988)" fill="#fff" opacity="0.2"/>
    <path id="_Path_4" data-name="&lt;Path&gt;" d="M514.112,765.24l2.86.467a1.454,1.454,0,0,0,.13,1c.311.648,1,1.48.592,1.659l-4.134-.668Z" transform="translate(-343.055 -442.478)" fill="#6c63ff"/>
    <path id="Trazado_1807" data-name="Trazado 1807" d="M519.048,766.73a1.454,1.454,0,0,1-.13-1l-2.648-.433v-.034l2.86.467a1.454,1.454,0,0,0,.13,1c.311.648,1,1.48.592,1.659l-.173-.028C520,768.137,519.345,767.348,519.048,766.73Z" transform="translate(-345.222 -442.494)" fill="#fff" opacity="0.2"/>
    <rect id="Rectángulo_278" data-name="Rectángulo 278" width="3.099" height="4.594" rx="1.55" transform="translate(178.972 299.184) rotate(180)" fill="#985454"/>
    <circle id="Elipse_306" data-name="Elipse 306" cx="3.432" cy="3.432" r="3.432" transform="translate(173.935 289.33)" fill="#985454"/>
    <path id="Trazado_1808" data-name="Trazado 1808" d="M548.212,606.937v-1.494a1.54,1.54,0,0,0-.036-.325,3.432,3.432,0,0,0-1.376-6.477h.2a3.432,3.432,0,0,1,1.571,6.483,1.54,1.54,0,0,1,.036.325v1.488a1.539,1.539,0,0,1-1.743,1.537A1.555,1.555,0,0,0,548.212,606.937Z" transform="translate(-369.628 -309.297)" fill="#fff" opacity="0.2"/>
    <path id="Trazado_1809" data-name="Trazado 1809" d="M530.39,649.822s6.62.748,6.864,0a14.643,14.643,0,0,0,0-9.41,3.432,3.432,0,0,0-3.432-3.432h0a3.432,3.432,0,0,0-3.432,3.414Z" transform="translate(-356.509 -339.947)" fill="#6c63ff"/>
    <path id="Trazado_1810" data-name="Trazado 1810" d="M518.479,701l-2.989,13.727h2.989l3.1-10.184s3.875,1.661,4.87,4.981,0,5.2,0,5.2h3.21l.032-.148A14.272,14.272,0,0,0,525.341,701h0" transform="translate(-344.598 -391.125)" fill="#263238"/>
    <path id="Trazado_1811" data-name="Trazado 1811" d="M549.883,649.854a14.642,14.642,0,0,0,0-9.41,3.432,3.432,0,0,0-3.209-3.424h.22a3.432,3.432,0,0,1,3.432,3.406,14.639,14.639,0,0,1,0,9.41c-.088.267-.993.343-2.118.331C549.12,650.163,549.806,650.077,549.883,649.854Z" transform="translate(-369.527 -339.979)" fill="#fff" opacity="0.2"/>
    <g id="Grupo_522" data-name="Grupo 522" transform="translate(173.435 309.922)" opacity="0.2">
      <path id="Trazado_1812" data-name="Trazado 1812" d="M531.656,719.077l-3.043,10h-.443l3.1-10.184S531.418,718.952,531.656,719.077Z" transform="translate(-528.17 -715.347)" fill="#fff"/>
      <path id="Trazado_1813" data-name="Trazado 1813" d="M562.39,701.23h.443a14.272,14.272,0,0,1,4.349,13.578l-.032.148h-.443l.032-.148A14.272,14.272,0,0,0,562.39,701.23Z" transform="translate(-555.526 -701.23)" fill="#fff"/>
    </g>
    <path id="Trazado_1814" data-name="Trazado 1814" d="M542.5,604.477s10.018-4.062,10.912-11.921l-1.942-.445s-6.943,8.971-10.132,9.26S542.5,604.477,542.5,604.477Z" transform="translate(-364.331 -304.077)" fill="#6c63ff"/>
    <path id="Trazado_1815" data-name="Trazado 1815" d="M561.45,594.5l.323.074c-.895,7.859-10.912,11.921-10.912,11.921l-.2-.13C551.844,605.858,560.616,601.822,561.45,594.5Z" transform="translate(-372.713 -305.988)" fill="#fff" opacity="0.2"/>
    <path id="Trazado_1816" data-name="Trazado 1816" d="M597.644,586.032s.77-.391.347-1.51-1.785-.636-1.785-.636-.754,1.3-.4,1.727S597.644,586.032,597.644,586.032Z" transform="translate(-408.727 -297.42)" fill="#985454"/>
    <path id="Trazado_1817" data-name="Trazado 1817" d="M599.937,586.075s.77-.391.347-1.51a1.061,1.061,0,0,0-.688-.674,1.075,1.075,0,0,1,.9.724c.425,1.119-.347,1.511-.347,1.511a6.008,6.008,0,0,1-1.3-.148A6.546,6.546,0,0,0,599.937,586.075Z" transform="translate(-411.237 -297.506)" fill="#fff" opacity="0.2"/>
    <path id="Trazado_1818" data-name="Trazado 1818" d="M528.9,598.873l-.2,4.614H523.86v-2.435c0-4.919,5.2-6.786,8.128-2.832A30.379,30.379,0,0,1,528.9,598.873Z" transform="translate(-351.289 -307.251)" fill="#263238"/>
    <path id="Trazado_1819" data-name="Trazado 1819" d="M543.64,596.106a4.894,4.894,0,0,1,3.5,2.124,30.174,30.174,0,0,1-3.075.66l-.221,4.614h.67l.221-4.614a29.662,29.662,0,0,0,3.075-.66A4.741,4.741,0,0,0,543.64,596.106Z" transform="translate(-367.102 -307.261)" fill="#fff" opacity="0.2"/>
    <g id="Grupo_540" data-name="Grupo 540">
      <rect id="Rectángulo_257" data-name="Rectángulo 257" width="156.794" height="94.296" rx="12.5" transform="translate(107.65 193.518)" fill="url(#linear-gradient-6)"/>
      <rect id="Rectángulo_270" data-name="Rectángulo 270" width="70.712" height="5.847" transform="translate(116.61 271.771)" fill="#bdbdbd"/>
      <rect id="Rectángulo_271" data-name="Rectángulo 271" width="23.752" height="5.847" transform="translate(116.61 259.934)" fill="#e0e0e0"/>
      <rect id="Rectángulo_279" data-name="Rectángulo 279" width="105.863" height="5.847" transform="translate(116.61 247.453)" fill="#e0e0e0"/>
      <g id="Grupo_523" data-name="Grupo 523" transform="translate(116.953 222.081)">
        <path id="XMLID_118_" d="M24.991,31.456H7.616A1.617,1.617,0,0,1,6,29.839V17.616A1.617,1.617,0,0,1,7.616,16H24.991a1.617,1.617,0,0,1,1.616,1.616V29.839a1.617,1.617,0,0,1-1.616,1.616" transform="translate(-4.712 -14.712)" fill="#f0c41b"/>
        <path id="XMLID_115_" d="M25.279,33.032H7.9a2.908,2.908,0,0,1-2.9-2.9V17.9A2.908,2.908,0,0,1,7.9,15H25.279a2.908,2.908,0,0,1,2.9,2.9V30.127a2.908,2.908,0,0,1-2.9,2.9M7.9,17.576a.327.327,0,0,0-.328.328V30.127a.327.327,0,0,0,.328.328H25.279a.328.328,0,0,0,.328-.328V17.9a.328.328,0,0,0-.328-.328Z" transform="translate(-5 -15)" fill="#f3d55c"/>
        <path id="XMLID_114_" d="M24.88,17.616A1.617,1.617,0,0,0,23.263,16H13.616A1.616,1.616,0,0,0,12,17.616V29.839a1.616,1.616,0,0,0,1.616,1.616h1.919a1.617,1.617,0,0,0,1.616-1.616V22.768a1.617,1.617,0,0,1,1.616-1.616h4.5a1.617,1.617,0,0,0,1.616-1.616Z" transform="translate(-2.984 -14.712)" fill="#f0c41b"/>
        <path id="XMLID_111_" d="M15.823,33.032H13.9a2.908,2.908,0,0,1-2.9-2.9V17.9A2.908,2.908,0,0,1,13.9,15h9.647a2.908,2.908,0,0,1,2.9,2.9v1.919a2.908,2.908,0,0,1-2.9,2.9h-4.5a.327.327,0,0,0-.328.328v7.071a2.908,2.908,0,0,1-2.9,2.9M13.9,17.576a.327.327,0,0,0-.328.328V30.127a.327.327,0,0,0,.328.328h1.919a.328.328,0,0,0,.328-.328V23.056a2.908,2.908,0,0,1,2.9-2.9h4.5a.328.328,0,0,0,.328-.328V17.9a.328.328,0,0,0-.328-.328Z" transform="translate(-3.272 -15)" fill="#f3d55c"/>
        <path id="XMLID_109_" d="M24.016,25.576H16.288a1.288,1.288,0,0,1,0-2.576h7.728a1.288,1.288,0,0,1,0,2.576" transform="translate(-2.12 -12.696)" fill="#f3d55c"/>
        <path id="XMLID_107_" d="M14.016,21.576H6.288a1.288,1.288,0,1,1,0-2.576h7.728a1.288,1.288,0,1,1,0,2.576" transform="translate(-5 -13.848)" fill="#f3d55c"/>
        <path id="XMLID_105_" d="M14.016,25.576H6.288a1.288,1.288,0,1,1,0-2.576h7.728a1.288,1.288,0,1,1,0,2.576" transform="translate(-5 -12.696)" fill="#f3d55c"/>
      </g>
      <circle id="Elipse_307" data-name="Elipse 307" cx="8.868" cy="8.868" r="8.868" transform="translate(227.779 195.805)" fill="#1b5271"/>
      <circle id="Elipse_308" data-name="Elipse 308" cx="8.868" cy="8.868" r="8.868" transform="translate(140.413 199.09)" fill="#1b5271"/>
      <circle id="Elipse_313" data-name="Elipse 313" cx="2.299" cy="2.299" r="2.299" transform="translate(113.481 212.227)" fill="#1b5271"/>
      <circle id="Elipse_309" data-name="Elipse 309" cx="5.255" cy="5.255" r="5.255" transform="translate(122.677 199.09)" fill="#1b5271"/>
      <circle id="Elipse_314" data-name="Elipse 314" cx="5.255" cy="5.255" r="5.255" transform="translate(170.63 199.09)" fill="#1b5271"/>
      <circle id="Elipse_316" data-name="Elipse 316" cx="5.255" cy="5.255" r="5.255" transform="translate(154.208 224.708)" fill="#1b5271"/>
      <circle id="Elipse_315" data-name="Elipse 315" cx="5.255" cy="5.255" r="5.255" transform="translate(200.846 193.834)" fill="#1b5271"/>
      <circle id="Elipse_317" data-name="Elipse 317" cx="5.255" cy="5.255" r="5.255" transform="translate(212.013 226.022)" fill="#1b5271"/>
      <circle id="Elipse_318" data-name="Elipse 318" cx="5.255" cy="5.255" r="5.255" transform="translate(246.171 216.825)" fill="#1b5271"/>
      <circle id="Elipse_310" data-name="Elipse 310" cx="8.868" cy="8.868" r="8.868" transform="translate(183.767 214.855)" fill="#1b5271"/>
      <g id="mastercard" transform="translate(228.435 262.15)">
        <path id="Trazado_1820" data-name="Trazado 1820" d="M218.44,109.22a8.42,8.42,0,1,1-16.84,0h0a8.42,8.42,0,1,1,16.84,0Z" transform="translate(-190.373 -100.8)" fill="#ffb600"/>
        <path id="Trazado_1821" data-name="Trazado 1821" d="M210.02,100.8a8.442,8.442,0,0,1,8.42,8.42h0a8.42,8.42,0,1,1-16.84,0" transform="translate(-190.373 -100.8)" fill="#f7981d"/>
        <path id="Trazado_1822" data-name="Trazado 1822" d="M352.8,100.8a8.442,8.442,0,0,1,8.42,8.42h0a8.413,8.413,0,0,1-8.42,8.42" transform="translate(-333.153 -100.8)" fill="#ff8500"/>
        <path id="Trazado_1823" data-name="Trazado 1823" d="M8.331,100.8a8.42,8.42,0,0,0,.089,16.84,8.518,8.518,0,0,0,5.658-2.183h0a8.005,8.005,0,0,0,.846-.891H13.187a10.278,10.278,0,0,1-.624-.846h2.985a5.707,5.707,0,0,0,.49-.891H12.073a5.31,5.31,0,0,1-.356-.891H16.35a8.846,8.846,0,0,0,.446-2.673,11.5,11.5,0,0,0-.178-1.782H11.45a6.514,6.514,0,0,1,.223-.891h4.633a5.309,5.309,0,0,0-.356-.891H12.029a8.837,8.837,0,0,1,.49-.891H15.5a4.236,4.236,0,0,0-.668-.891H13.187a7.592,7.592,0,0,1,.846-.846,8.221,8.221,0,0,0-5.658-2.183C8.376,100.8,8.376,100.8,8.331,100.8Z" transform="translate(0 -100.8)" fill="#ff5050"/>
        <path id="Trazado_1824" data-name="Trazado 1824" d="M0,110.731a8.413,8.413,0,0,0,8.42,8.42,8.518,8.518,0,0,0,5.658-2.183h0a8,8,0,0,0,.846-.891H13.187a10.275,10.275,0,0,1-.624-.846h2.985a5.707,5.707,0,0,0,.49-.891H12.073a5.31,5.31,0,0,1-.356-.891H16.35a8.846,8.846,0,0,0,.446-2.673,11.5,11.5,0,0,0-.178-1.782H11.45a6.514,6.514,0,0,1,.223-.891h4.633a5.31,5.31,0,0,0-.356-.891H12.029a8.835,8.835,0,0,1,.49-.891H15.5a4.237,4.237,0,0,0-.668-.891H13.187a7.593,7.593,0,0,1,.846-.846A8.221,8.221,0,0,0,8.376,102.4H8.331" transform="translate(0 -102.311)" fill="#e52836"/>
        <path id="Trazado_1825" data-name="Trazado 1825" d="M149.689,119.151a8.518,8.518,0,0,0,5.658-2.183h0a8.006,8.006,0,0,0,.846-.891h-1.738a10.281,10.281,0,0,1-.624-.846h2.985a5.7,5.7,0,0,0,.49-.891h-3.965a5.309,5.309,0,0,1-.356-.891h4.633a8.846,8.846,0,0,0,.445-2.673,11.5,11.5,0,0,0-.178-1.782h-5.168a6.518,6.518,0,0,1,.223-.891h4.633a5.311,5.311,0,0,0-.356-.891H153.3a8.838,8.838,0,0,1,.49-.891h2.985a4.237,4.237,0,0,0-.668-.891h-1.648a7.594,7.594,0,0,1,.846-.846,8.221,8.221,0,0,0-5.658-2.183H149.6" transform="translate(-141.269 -102.311)" fill="#cb2026"/>
        <g id="Grupo_524" data-name="Grupo 524" transform="translate(0.802 6.237)">
          <path id="Trazado_1826" data-name="Trazado 1826" d="M182.892,223.92l.134-.757a1.929,1.929,0,0,1-.223.045c-.312,0-.356-.178-.312-.267l.267-1.559h.49l.134-.846h-.446l.089-.535h-.891s-.535,2.94-.535,3.3a.669.669,0,0,0,.713.757A1.368,1.368,0,0,0,182.892,223.92Z" transform="translate(-172.289 -219.599)" fill="#fff"/>
          <path id="Trazado_1827" data-name="Trazado 1827" d="M210.4,230.709a1.417,1.417,0,0,0,1.559,1.559,2.313,2.313,0,0,0,.936-.134l.178-.846a2.671,2.671,0,0,1-.936.223c-.98,0-.8-.713-.8-.713h1.827a5.776,5.776,0,0,0,.134-.8A1.207,1.207,0,0,0,212,228.7C211.068,228.615,210.4,229.6,210.4,230.709Zm1.559-1.292c.49,0,.4.579.4.624h-.98C211.38,230,211.469,229.417,211.959,229.417Z" transform="translate(-199.485 -227.813)" fill="#fff"/>
          <path id="Trazado_1828" data-name="Trazado 1828" d="M298.45,217.121l.178-.98a2.189,2.189,0,0,1-.757.223c-.624,0-.891-.49-.891-1.025,0-1.069.535-1.648,1.158-1.648a1.488,1.488,0,0,1,.8.267l.134-.936a3.132,3.132,0,0,0-1.025-.223c-1.025,0-2.049.891-2.049,2.584,0,1.114.535,1.871,1.6,1.871A4,4,0,0,0,298.45,217.121Z" transform="translate(-280.318 -212.8)" fill="#fff"/>
          <path id="Trazado_1829" data-name="Trazado 1829" d="M88.093,227.2a3.155,3.155,0,0,0-1.069.178l-.134.757a2.634,2.634,0,0,1,.98-.178c.312,0,.579.045.579.312,0,.178-.045.223-.045.223H88c-.757,0-1.6.312-1.6,1.337,0,.8.535.98.846.98a1.339,1.339,0,0,0,.936-.4l-.045.356h.8l.356-2.45A1.056,1.056,0,0,0,88.093,227.2Zm.178,2c0,.134-.089.846-.624.846a.348.348,0,0,1-.356-.356c0-.223.134-.535.8-.535A.7.7,0,0,0,88.271,229.2Z" transform="translate(-82.39 -226.398)" fill="#fff"/>
          <path id="Trazado_1830" data-name="Trazado 1830" d="M136.225,230.053a1.142,1.142,0,0,0,1.337-1.158c0-1.114-1.069-.891-1.069-1.337,0-.223.178-.312.49-.312.134,0,.624.045.624.045l.134-.8a3.385,3.385,0,0,0-.846-.089c-.668,0-1.337.267-1.337,1.158,0,1.025,1.114.936,1.114,1.337,0,.267-.312.312-.535.312a2.914,2.914,0,0,1-.8-.134l-.134.8C135.245,229.964,135.467,230.053,136.225,230.053Z" transform="translate(-128.473 -225.643)" fill="#fff"/>
          <path id="Trazado_1831" data-name="Trazado 1831" d="M429.739,214.4l-.178,1.2a1.235,1.235,0,0,0-.846-.445c-.8,0-1.515.98-1.515,2.138,0,.713.356,1.47,1.114,1.47a1.189,1.189,0,0,0,.846-.356l-.044.312h.891l.668-4.277Zm-.4,2.361c0,.49-.223,1.114-.713,1.114-.312,0-.49-.267-.49-.713,0-.713.312-1.158.713-1.158C429.16,216,429.338,216.227,429.338,216.761Z" transform="translate(-404.212 -214.311)" fill="#fff"/>
          <path id="Trazado_1832" data-name="Trazado 1832" d="M15.246,218.677l.535-3.208.089,3.208h.624l1.158-3.208-.49,3.208H18.1l.713-4.277H17.34l-.891,2.629L16.4,214.4H15.113l-.713,4.277Z" transform="translate(-14.4 -214.311)" fill="#fff"/>
          <path id="Trazado_1833" data-name="Trazado 1833" d="M260.98,232.275c.267-1.47.312-2.673.936-2.45a3.5,3.5,0,0,1,.312-1.025h-.178c-.4,0-.713.535-.713.535l.089-.49h-.846L260,232.32h.98Z" transform="translate(-246.323 -227.909)" fill="#fff"/>
          <path id="Trazado_1834" data-name="Trazado 1834" d="M348.093,227.2a3.155,3.155,0,0,0-1.069.178l-.134.757a2.634,2.634,0,0,1,.98-.178c.312,0,.579.045.579.312,0,.178-.045.223-.045.223H348c-.757,0-1.6.312-1.6,1.337,0,.8.535.98.846.98a1.339,1.339,0,0,0,.936-.4l-.045.356h.8l.356-2.45A1.04,1.04,0,0,0,348.093,227.2Zm.223,2c0,.134-.089.846-.624.846a.348.348,0,0,1-.356-.356c0-.223.134-.535.8-.535C348.271,229.2,348.271,229.2,348.316,229.2Z" transform="translate(-327.911 -226.398)" fill="#fff"/>
          <path id="Trazado_1835" data-name="Trazado 1835" d="M395.38,232.275c.267-1.47.312-2.673.936-2.45a3.5,3.5,0,0,1,.312-1.025h-.178c-.4,0-.713.535-.713.535l.089-.49h-.846l-.579,3.475h.98Z" transform="translate(-373.238 -227.909)" fill="#fff"/>
        </g>
        <g id="Grupo_525" data-name="Grupo 525" transform="translate(0.802 6.237)">
          <path id="Trazado_1836" data-name="Trazado 1836" d="M180,223.3a.669.669,0,0,0,.713.757,1.7,1.7,0,0,0,.668-.134l.134-.757a1.93,1.93,0,0,1-.223.045c-.312,0-.356-.178-.312-.267l.267-1.559h.49l.134-.846h-.446l.089-.535" transform="translate(-170.778 -219.599)" fill="#dce5e5"/>
          <path id="Trazado_1837" data-name="Trazado 1837" d="M218.4,230.709c0,1.247.4,1.559,1.114,1.559a2.313,2.313,0,0,0,.936-.134l.178-.846a2.671,2.671,0,0,1-.936.223c-.98,0-.8-.713-.8-.713h1.827a5.777,5.777,0,0,0,.134-.8,1.207,1.207,0,0,0-1.292-1.292C218.623,228.615,218.4,229.6,218.4,230.709Zm1.114-1.292c.49,0,.579.579.579.624h-1.158C218.935,230,219.024,229.417,219.514,229.417Z" transform="translate(-207.039 -227.813)" fill="#dce5e5"/>
          <path id="Trazado_1838" data-name="Trazado 1838" d="M306,217.121l.178-.98a2.189,2.189,0,0,1-.757.223c-.624,0-.891-.49-.891-1.025,0-1.069.535-1.648,1.158-1.648a1.488,1.488,0,0,1,.8.267l.134-.936a3.132,3.132,0,0,0-1.025-.223c-1.025,0-1.6.891-1.6,2.584,0,1.114.089,1.871,1.158,1.871A4,4,0,0,0,306,217.121Z" transform="translate(-287.872 -212.8)" fill="#dce5e5"/>
          <path id="Trazado_1839" data-name="Trazado 1839" d="M86.89,229.691a2.633,2.633,0,0,1,.98-.178c.312,0,.579.045.579.312,0,.178-.045.223-.045.223H88c-.757,0-1.6.312-1.6,1.337,0,.8.535.98.846.98a1.339,1.339,0,0,0,.936-.4l-.045.356h.8l.356-2.45c0-1.025-.891-1.069-1.247-1.069m.668,1.916a1.459,1.459,0,0,1-1.069.846.348.348,0,0,1-.356-.356c0-.223.134-.535.8-.535A3.639,3.639,0,0,0,88.717,230.716Z" transform="translate(-82.39 -227.909)" fill="#dce5e5"/>
          <path id="Trazado_1840" data-name="Trazado 1840" d="M136,229.964a3.771,3.771,0,0,0,1.025.089,1.142,1.142,0,0,0,1.337-1.158c0-1.114-1.069-.891-1.069-1.337,0-.223.178-.312.49-.312.134,0,.624.045.624.045l.134-.8a3.385,3.385,0,0,0-.846-.089c-.668,0-.891.267-.891,1.158,0,1.025.668.936.668,1.337,0,.267-.312.312-.535.312" transform="translate(-129.228 -225.643)" fill="#dce5e5"/>
          <path id="Trazado_1841" data-name="Trazado 1841" d="M437.061,216.358a1.235,1.235,0,0,0-.846-.446c-.8,0-1.069.98-1.069,2.138,0,.713-.089,1.47.668,1.47a1.189,1.189,0,0,0,.846-.356l-.045.312h.891l.668-4.277m-1.158,2.317c0,.49-.4,1.114-.891,1.114-.312,0-.49-.267-.49-.713,0-.713.312-1.158.713-1.158A.681.681,0,0,1,437.016,217.517Z" transform="translate(-411.711 -215.066)" fill="#dce5e5"/>
          <path id="Trazado_1842" data-name="Trazado 1842" d="M15.246,218.677l.535-3.208.089,3.208h.624l1.158-3.208-.49,3.208H18.1l.713-4.277H17.7l-1.247,2.629L16.4,214.4h-.49L14.4,218.677Z" transform="translate(-14.4 -214.311)" fill="#dce5e5"/>
          <path id="Trazado_1843" data-name="Trazado 1843" d="M260.8,232.275h.936c.267-1.47.312-2.673.936-2.45a3.5,3.5,0,0,1,.312-1.025H262.8c-.4,0-.713.535-.713.535l.089-.49" transform="translate(-247.078 -227.909)" fill="#dce5e5"/>
          <path id="Trazado_1844" data-name="Trazado 1844" d="M346.89,229.691a2.633,2.633,0,0,1,.98-.178c.312,0,.579.045.579.312,0,.178-.045.223-.045.223H348c-.757,0-1.6.312-1.6,1.337,0,.8.535.98.846.98a1.339,1.339,0,0,0,.936-.4l-.045.356h.8l.356-2.45c0-1.025-.891-1.069-1.247-1.069m.668,1.916a1.459,1.459,0,0,1-1.069.846.348.348,0,0,1-.356-.356c0-.223.134-.535.8-.535A3.918,3.918,0,0,0,348.717,230.716Z" transform="translate(-327.911 -227.909)" fill="#dce5e5"/>
          <path id="Trazado_1845" data-name="Trazado 1845" d="M395.2,232.275h.936c.267-1.47.312-2.673.936-2.45a3.5,3.5,0,0,1,.312-1.025H397.2c-.4,0-.713.535-.713.535l.089-.49" transform="translate(-373.994 -227.909)" fill="#dce5e5"/>
        </g>
      </g>
    </g>
  </g>
</svg>
