<svg xmlns="http://www.w3.org/2000/svg" width="17.727" height="20.755" viewBox="0 0 17.727 20.755">
  <g id="paypal_1_" data-name="paypal (1)" transform="translate(-37.352)">
    <path id="Trazado_1676" data-name="Trazado 1676" d="M42.9,12.308a.926.926,0,0,1,.917-.778h1.907c3.748,0,6.681-1.51,7.538-5.878.026-.13.066-.379.066-.379a4.127,4.127,0,0,0-.882-3.707C51.479.47,49.728,0,47.488,0h-6.5a.93.93,0,0,0-.92.778L37.359,17.812a.555.555,0,0,0,.551.64h4.014l1.008-6.343Z" transform="translate(0 0)" fill="#0d47a1"/>
    <path id="Trazado_1677" data-name="Trazado 1677" d="M173.211,157.072H171.5l-1.276,8.079H173a.812.812,0,0,0,.8-.682l.032-.171.638-4.01.042-.221a.812.812,0,0,1,.8-.682h.507c3.278,0,5.844-1.321,6.594-5.141a4.445,4.445,0,0,0-.588-3.748C180.9,154.8,177.928,157.072,173.211,157.072Z" transform="translate(-127.486 -144.395)" fill="#0d47a1"/>
  </g>
</svg>
